M48
;GenerationSoftware,Autodesk,EAGLE,9.6.2*%
;CreationDate,2022-09-21T18:46:17Z*%
FMAT,2
ICI,OFF
METRIC,TZ,000.000
T4C0.350
T3C0.813
T2C1.016
%
G90
M71
T2
X19711Y3881
X22251Y3881
X24791Y3881
X27331Y3881
T3
X38752Y21758
X114862Y14138
X31132Y21758
X38752Y19218
X45087Y19218
X52707Y21758
X45087Y21758
X52707Y19218
X59042Y19218
X66662Y21758
X59042Y21758
X66662Y19218
X72997Y19218
X80617Y21758
X72997Y21758
X80617Y19218
X114862Y21758
X114862Y19218
X114862Y6518
X114862Y3978
X114862Y16678
X220167Y19218
X10842Y9058
X3222Y21758
X3222Y19218
X3222Y6518
X3222Y3978
X3222Y16678
X3222Y14138
X3222Y9058
X3222Y11598
X10842Y3978
X10842Y6518
X31132Y19218
X10842Y11598
X10842Y14138
X10842Y16678
X10842Y19218
X10842Y21758
X17672Y19218
X25292Y21758
X17672Y21758
X25292Y19218
X198592Y19218
X178302Y21758
X170682Y21758
X178302Y19218
X184637Y19218
X192257Y21758
X184637Y21758
X192257Y19218
X86952Y19218
X94572Y21758
X86952Y21758
X94572Y19218
X114862Y11598
X206212Y21758
X198592Y21758
X206212Y19218
X100907Y19218
X108527Y21758
X100907Y21758
X108527Y19218
X212547Y19218
X220167Y21758
X212547Y21758
X164347Y19218
X114862Y9058
X122482Y3978
X122482Y6518
X122482Y9058
X122482Y11598
X122482Y14138
X122482Y16678
X122482Y19218
X122482Y21758
X128817Y19218
X128817Y21758
X170682Y19218
X156727Y21758
X164347Y21758
X156727Y19218
X150392Y19218
X142772Y21758
X150392Y21758
X142772Y19218
X136437Y19218
X136437Y21758
T4
X172517Y4928
X72796Y1991
X63195Y3429
X82956Y4943
X146431Y3429
X156032Y4902
X166167Y4928
X112446Y17348
X60782Y8463
X60808Y5070
X131445Y12649
X59436Y8814
X59436Y5436
X2258Y15392
X77266Y5715
X69533Y5753
X76632Y1626
X74600Y5080
X88036Y11582
X88036Y10064
X124028Y4572
X86741Y11608
X86741Y10430
X125546Y18517
X131318Y18577
X167538Y9220
X167437Y11506
X84226Y11608
X84252Y10455
X164922Y11532
X164922Y9550
X163627Y11532
X66497Y11552
X68961Y8103
X152146Y11414
X119568Y11598
X127660Y8738
X139954Y8687
X67691Y11552
X67716Y7762
X150952Y11430
X139268Y8001
X119355Y4978
X119278Y6452
X163601Y8839
X66497Y7737
X149606Y11455
X120218Y9246
X129670Y10747
X139100Y10785
X65176Y11552
X65100Y7762
X148387Y11506
X130327Y11455
X139649Y11506
X128829Y9957
X119253Y21106
X120167Y14097
X156210Y952
X57785Y9843
X13017Y17145
X158572Y1753
X145390Y2347
X132029Y9373
X58578Y9154
X58572Y6172
X74066Y8103
X74092Y11608
X119263Y16729
X120193Y21107
X157302Y16840
X157277Y14732
X72796Y7036
X72796Y11608
X63881Y18720
X82880Y18771
X89306Y18999
X147066Y18720
X166141Y18923
X172542Y18898
X89306Y4943
X88036Y4943
X162357Y11532
X162357Y8509
X161112Y11506
X161061Y7899
X84226Y6198
X84252Y4943
X85496Y6411
X85496Y4943
X86766Y6776
X86766Y4943
X88036Y7137
X68961Y11552
X118034Y20335
X104292Y10897
X104292Y18517
X23647Y1372
X62776Y14199
X59106Y14224
X177038Y14681
X173330Y14681
X29362Y10528
X156007Y14757
X155981Y16815
M30