G04 EAGLE Gerber RS-274X export*
G75*
%MOMM*%
%FSLAX34Y34*%
%LPD*%
%INSilkscreen Top*%
%IPPOS*%
%AMOC8*
5,1,8,0,0,1.08239X$1,22.5*%
G01*
%ADD10C,0.254000*%
%ADD11C,0.152400*%
%ADD12C,0.127000*%
%ADD13C,1.016000*%
%ADD14C,0.177800*%
%ADD15C,0.500000*%
%ADD16C,0.120000*%
%ADD17C,0.076200*%
%ADD18C,0.203200*%


D10*
X199871Y57438D02*
X189711Y60825D01*
X199871Y64212D01*
X197331Y63365D02*
X197331Y58285D01*
X195356Y71690D02*
X195356Y75077D01*
X195356Y71690D02*
X195354Y71597D01*
X195348Y71504D01*
X195339Y71411D01*
X195325Y71318D01*
X195308Y71227D01*
X195287Y71136D01*
X195262Y71046D01*
X195234Y70957D01*
X195202Y70869D01*
X195166Y70783D01*
X195127Y70698D01*
X195084Y70615D01*
X195038Y70534D01*
X194988Y70455D01*
X194936Y70378D01*
X194880Y70303D01*
X194821Y70231D01*
X194759Y70161D01*
X194695Y70093D01*
X194627Y70029D01*
X194557Y69967D01*
X194485Y69908D01*
X194410Y69852D01*
X194333Y69800D01*
X194254Y69750D01*
X194173Y69704D01*
X194090Y69661D01*
X194005Y69622D01*
X193919Y69586D01*
X193831Y69554D01*
X193742Y69526D01*
X193652Y69501D01*
X193561Y69480D01*
X193470Y69463D01*
X193377Y69449D01*
X193284Y69440D01*
X193191Y69434D01*
X193098Y69432D01*
X193098Y69433D02*
X192534Y69433D01*
X192428Y69435D01*
X192323Y69441D01*
X192218Y69451D01*
X192113Y69465D01*
X192009Y69482D01*
X191906Y69504D01*
X191804Y69529D01*
X191702Y69558D01*
X191602Y69591D01*
X191503Y69628D01*
X191406Y69668D01*
X191310Y69712D01*
X191215Y69760D01*
X191123Y69811D01*
X191033Y69866D01*
X190944Y69923D01*
X190858Y69984D01*
X190775Y70049D01*
X190693Y70116D01*
X190615Y70186D01*
X190539Y70260D01*
X190465Y70336D01*
X190395Y70414D01*
X190328Y70496D01*
X190263Y70579D01*
X190202Y70665D01*
X190145Y70754D01*
X190090Y70844D01*
X190039Y70936D01*
X189991Y71031D01*
X189947Y71127D01*
X189907Y71224D01*
X189870Y71323D01*
X189837Y71423D01*
X189808Y71525D01*
X189783Y71627D01*
X189761Y71730D01*
X189744Y71834D01*
X189730Y71939D01*
X189720Y72044D01*
X189714Y72149D01*
X189712Y72255D01*
X189714Y72361D01*
X189720Y72466D01*
X189730Y72571D01*
X189744Y72676D01*
X189761Y72780D01*
X189783Y72883D01*
X189808Y72985D01*
X189837Y73087D01*
X189870Y73187D01*
X189907Y73286D01*
X189947Y73383D01*
X189991Y73479D01*
X190039Y73574D01*
X190090Y73666D01*
X190145Y73756D01*
X190202Y73845D01*
X190263Y73931D01*
X190328Y74014D01*
X190395Y74096D01*
X190465Y74174D01*
X190539Y74250D01*
X190615Y74324D01*
X190693Y74394D01*
X190775Y74461D01*
X190858Y74526D01*
X190944Y74587D01*
X191033Y74644D01*
X191123Y74699D01*
X191215Y74750D01*
X191310Y74798D01*
X191406Y74842D01*
X191503Y74882D01*
X191602Y74919D01*
X191702Y74952D01*
X191804Y74981D01*
X191906Y75006D01*
X192009Y75028D01*
X192113Y75045D01*
X192218Y75059D01*
X192323Y75069D01*
X192428Y75075D01*
X192534Y75077D01*
X195356Y75077D01*
X195356Y75078D02*
X195487Y75076D01*
X195619Y75070D01*
X195750Y75061D01*
X195880Y75047D01*
X196011Y75030D01*
X196140Y75009D01*
X196269Y74985D01*
X196397Y74956D01*
X196525Y74924D01*
X196651Y74888D01*
X196776Y74849D01*
X196901Y74806D01*
X197023Y74759D01*
X197145Y74709D01*
X197265Y74655D01*
X197383Y74598D01*
X197499Y74537D01*
X197614Y74473D01*
X197727Y74406D01*
X197838Y74335D01*
X197946Y74261D01*
X198053Y74184D01*
X198157Y74104D01*
X198259Y74021D01*
X198358Y73936D01*
X198455Y73847D01*
X198549Y73755D01*
X198641Y73661D01*
X198730Y73564D01*
X198815Y73465D01*
X198898Y73363D01*
X198978Y73259D01*
X199055Y73152D01*
X199129Y73044D01*
X199200Y72933D01*
X199267Y72820D01*
X199331Y72705D01*
X199392Y72589D01*
X199449Y72471D01*
X199503Y72351D01*
X199553Y72229D01*
X199600Y72107D01*
X199643Y71982D01*
X199682Y71857D01*
X199718Y71731D01*
X199750Y71603D01*
X199779Y71475D01*
X199803Y71346D01*
X199824Y71216D01*
X199841Y71086D01*
X199855Y70956D01*
X199864Y70825D01*
X199870Y70693D01*
X199872Y70562D01*
X227811Y61954D02*
X227811Y59696D01*
X227812Y59696D02*
X227810Y59603D01*
X227804Y59510D01*
X227795Y59417D01*
X227781Y59324D01*
X227764Y59233D01*
X227743Y59142D01*
X227718Y59052D01*
X227690Y58963D01*
X227658Y58875D01*
X227622Y58789D01*
X227583Y58704D01*
X227540Y58621D01*
X227494Y58540D01*
X227444Y58461D01*
X227392Y58384D01*
X227336Y58309D01*
X227277Y58237D01*
X227215Y58167D01*
X227151Y58099D01*
X227083Y58035D01*
X227013Y57973D01*
X226941Y57914D01*
X226866Y57858D01*
X226789Y57806D01*
X226710Y57756D01*
X226629Y57710D01*
X226546Y57667D01*
X226461Y57628D01*
X226375Y57592D01*
X226287Y57560D01*
X226198Y57532D01*
X226108Y57507D01*
X226017Y57486D01*
X225926Y57469D01*
X225833Y57455D01*
X225740Y57446D01*
X225647Y57440D01*
X225554Y57438D01*
X219909Y57438D01*
X219816Y57440D01*
X219723Y57446D01*
X219630Y57455D01*
X219537Y57469D01*
X219446Y57486D01*
X219355Y57507D01*
X219265Y57532D01*
X219176Y57560D01*
X219088Y57592D01*
X219002Y57628D01*
X218917Y57667D01*
X218834Y57710D01*
X218753Y57756D01*
X218674Y57806D01*
X218597Y57858D01*
X218522Y57914D01*
X218450Y57973D01*
X218380Y58035D01*
X218312Y58099D01*
X218248Y58167D01*
X218186Y58237D01*
X218127Y58309D01*
X218071Y58384D01*
X218019Y58461D01*
X217969Y58540D01*
X217923Y58621D01*
X217880Y58704D01*
X217841Y58789D01*
X217805Y58875D01*
X217773Y58963D01*
X217745Y59052D01*
X217720Y59142D01*
X217699Y59233D01*
X217682Y59324D01*
X217668Y59417D01*
X217659Y59509D01*
X217653Y59603D01*
X217651Y59696D01*
X217651Y61954D01*
X217651Y69844D02*
X227811Y66457D01*
X227811Y73230D02*
X217651Y69844D01*
X225271Y72384D02*
X225271Y67304D01*
X227812Y81457D02*
X227810Y81550D01*
X227804Y81643D01*
X227795Y81736D01*
X227781Y81829D01*
X227764Y81920D01*
X227743Y82011D01*
X227718Y82101D01*
X227690Y82190D01*
X227658Y82278D01*
X227622Y82364D01*
X227583Y82449D01*
X227540Y82532D01*
X227494Y82613D01*
X227444Y82692D01*
X227392Y82769D01*
X227336Y82844D01*
X227277Y82916D01*
X227215Y82986D01*
X227151Y83054D01*
X227083Y83118D01*
X227013Y83180D01*
X226941Y83239D01*
X226866Y83295D01*
X226789Y83347D01*
X226710Y83397D01*
X226629Y83443D01*
X226546Y83486D01*
X226461Y83525D01*
X226375Y83561D01*
X226287Y83593D01*
X226198Y83621D01*
X226108Y83646D01*
X226017Y83667D01*
X225926Y83684D01*
X225833Y83698D01*
X225740Y83707D01*
X225647Y83713D01*
X225554Y83715D01*
X227812Y81457D02*
X227810Y81323D01*
X227804Y81188D01*
X227795Y81054D01*
X227782Y80920D01*
X227765Y80787D01*
X227744Y80654D01*
X227719Y80522D01*
X227691Y80390D01*
X227659Y80259D01*
X227624Y80130D01*
X227584Y80001D01*
X227542Y79874D01*
X227495Y79747D01*
X227445Y79622D01*
X227392Y79499D01*
X227335Y79377D01*
X227274Y79257D01*
X227211Y79138D01*
X227144Y79022D01*
X227073Y78907D01*
X227000Y78795D01*
X226923Y78684D01*
X226843Y78576D01*
X226761Y78470D01*
X226675Y78366D01*
X226586Y78265D01*
X226495Y78166D01*
X226401Y78070D01*
X219909Y78352D02*
X219816Y78354D01*
X219723Y78360D01*
X219630Y78369D01*
X219537Y78383D01*
X219446Y78400D01*
X219355Y78421D01*
X219265Y78446D01*
X219176Y78474D01*
X219088Y78506D01*
X219002Y78542D01*
X218917Y78581D01*
X218834Y78624D01*
X218753Y78670D01*
X218674Y78720D01*
X218597Y78772D01*
X218522Y78828D01*
X218450Y78887D01*
X218380Y78949D01*
X218312Y79013D01*
X218248Y79081D01*
X218186Y79151D01*
X218127Y79223D01*
X218071Y79298D01*
X218019Y79375D01*
X217969Y79454D01*
X217923Y79535D01*
X217880Y79618D01*
X217841Y79703D01*
X217805Y79789D01*
X217773Y79877D01*
X217745Y79966D01*
X217720Y80056D01*
X217699Y80147D01*
X217682Y80238D01*
X217668Y80331D01*
X217659Y80424D01*
X217653Y80517D01*
X217651Y80610D01*
X217652Y80610D02*
X217654Y80740D01*
X217660Y80869D01*
X217670Y80999D01*
X217684Y81128D01*
X217702Y81256D01*
X217723Y81384D01*
X217749Y81511D01*
X217779Y81637D01*
X217812Y81763D01*
X217849Y81887D01*
X217890Y82010D01*
X217935Y82132D01*
X217983Y82252D01*
X218036Y82371D01*
X218091Y82488D01*
X218151Y82603D01*
X218214Y82717D01*
X218280Y82828D01*
X218349Y82938D01*
X218422Y83045D01*
X218499Y83150D01*
X221884Y79482D02*
X221834Y79401D01*
X221781Y79322D01*
X221725Y79245D01*
X221665Y79171D01*
X221602Y79100D01*
X221536Y79031D01*
X221468Y78964D01*
X221397Y78901D01*
X221323Y78841D01*
X221247Y78784D01*
X221168Y78730D01*
X221088Y78679D01*
X221005Y78632D01*
X220920Y78588D01*
X220834Y78548D01*
X220746Y78511D01*
X220657Y78478D01*
X220566Y78449D01*
X220474Y78424D01*
X220382Y78402D01*
X220288Y78385D01*
X220194Y78371D01*
X220099Y78361D01*
X220004Y78355D01*
X219909Y78353D01*
X223578Y82586D02*
X223629Y82667D01*
X223682Y82746D01*
X223738Y82823D01*
X223798Y82897D01*
X223861Y82968D01*
X223927Y83037D01*
X223995Y83104D01*
X224066Y83167D01*
X224140Y83227D01*
X224216Y83284D01*
X224295Y83338D01*
X224375Y83389D01*
X224458Y83436D01*
X224543Y83480D01*
X224629Y83520D01*
X224717Y83557D01*
X224806Y83590D01*
X224897Y83619D01*
X224988Y83644D01*
X225081Y83666D01*
X225175Y83683D01*
X225269Y83697D01*
X225364Y83707D01*
X225459Y83713D01*
X225554Y83715D01*
X223578Y82586D02*
X221885Y79481D01*
X219909Y89119D02*
X217651Y91942D01*
X227811Y91942D01*
X227811Y94764D02*
X227811Y89119D01*
X227811Y100970D02*
X217651Y100970D01*
X227811Y100970D02*
X227811Y105485D01*
X253211Y61954D02*
X253211Y59696D01*
X253212Y59696D02*
X253210Y59603D01*
X253204Y59510D01*
X253195Y59417D01*
X253181Y59324D01*
X253164Y59233D01*
X253143Y59142D01*
X253118Y59052D01*
X253090Y58963D01*
X253058Y58875D01*
X253022Y58789D01*
X252983Y58704D01*
X252940Y58621D01*
X252894Y58540D01*
X252844Y58461D01*
X252792Y58384D01*
X252736Y58309D01*
X252677Y58237D01*
X252615Y58167D01*
X252551Y58099D01*
X252483Y58035D01*
X252413Y57973D01*
X252341Y57914D01*
X252266Y57858D01*
X252189Y57806D01*
X252110Y57756D01*
X252029Y57710D01*
X251946Y57667D01*
X251861Y57628D01*
X251775Y57592D01*
X251687Y57560D01*
X251598Y57532D01*
X251508Y57507D01*
X251417Y57486D01*
X251326Y57469D01*
X251233Y57455D01*
X251140Y57446D01*
X251047Y57440D01*
X250954Y57438D01*
X245309Y57438D01*
X245216Y57440D01*
X245123Y57446D01*
X245030Y57455D01*
X244937Y57469D01*
X244846Y57486D01*
X244755Y57507D01*
X244665Y57532D01*
X244576Y57560D01*
X244488Y57592D01*
X244402Y57628D01*
X244317Y57667D01*
X244234Y57710D01*
X244153Y57756D01*
X244074Y57806D01*
X243997Y57858D01*
X243922Y57914D01*
X243850Y57973D01*
X243780Y58035D01*
X243712Y58099D01*
X243648Y58167D01*
X243586Y58237D01*
X243527Y58309D01*
X243471Y58384D01*
X243419Y58461D01*
X243369Y58540D01*
X243323Y58621D01*
X243280Y58704D01*
X243241Y58789D01*
X243205Y58875D01*
X243173Y58963D01*
X243145Y59052D01*
X243120Y59142D01*
X243099Y59233D01*
X243082Y59324D01*
X243068Y59417D01*
X243059Y59509D01*
X243053Y59603D01*
X243051Y59696D01*
X243051Y61954D01*
X243051Y69844D02*
X253211Y66457D01*
X253211Y73230D02*
X243051Y69844D01*
X250671Y72384D02*
X250671Y67304D01*
X253212Y81457D02*
X253210Y81550D01*
X253204Y81643D01*
X253195Y81736D01*
X253181Y81829D01*
X253164Y81920D01*
X253143Y82011D01*
X253118Y82101D01*
X253090Y82190D01*
X253058Y82278D01*
X253022Y82364D01*
X252983Y82449D01*
X252940Y82532D01*
X252894Y82613D01*
X252844Y82692D01*
X252792Y82769D01*
X252736Y82844D01*
X252677Y82916D01*
X252615Y82986D01*
X252551Y83054D01*
X252483Y83118D01*
X252413Y83180D01*
X252341Y83239D01*
X252266Y83295D01*
X252189Y83347D01*
X252110Y83397D01*
X252029Y83443D01*
X251946Y83486D01*
X251861Y83525D01*
X251775Y83561D01*
X251687Y83593D01*
X251598Y83621D01*
X251508Y83646D01*
X251417Y83667D01*
X251326Y83684D01*
X251233Y83698D01*
X251140Y83707D01*
X251047Y83713D01*
X250954Y83715D01*
X253212Y81457D02*
X253210Y81323D01*
X253204Y81188D01*
X253195Y81054D01*
X253182Y80920D01*
X253165Y80787D01*
X253144Y80654D01*
X253119Y80522D01*
X253091Y80390D01*
X253059Y80259D01*
X253024Y80130D01*
X252984Y80001D01*
X252942Y79874D01*
X252895Y79747D01*
X252845Y79622D01*
X252792Y79499D01*
X252735Y79377D01*
X252674Y79257D01*
X252611Y79138D01*
X252544Y79022D01*
X252473Y78907D01*
X252400Y78795D01*
X252323Y78684D01*
X252243Y78576D01*
X252161Y78470D01*
X252075Y78366D01*
X251986Y78265D01*
X251895Y78166D01*
X251801Y78070D01*
X245309Y78352D02*
X245216Y78354D01*
X245123Y78360D01*
X245030Y78369D01*
X244937Y78383D01*
X244846Y78400D01*
X244755Y78421D01*
X244665Y78446D01*
X244576Y78474D01*
X244488Y78506D01*
X244402Y78542D01*
X244317Y78581D01*
X244234Y78624D01*
X244153Y78670D01*
X244074Y78720D01*
X243997Y78772D01*
X243922Y78828D01*
X243850Y78887D01*
X243780Y78949D01*
X243712Y79013D01*
X243648Y79081D01*
X243586Y79151D01*
X243527Y79223D01*
X243471Y79298D01*
X243419Y79375D01*
X243369Y79454D01*
X243323Y79535D01*
X243280Y79618D01*
X243241Y79703D01*
X243205Y79789D01*
X243173Y79877D01*
X243145Y79966D01*
X243120Y80056D01*
X243099Y80147D01*
X243082Y80238D01*
X243068Y80331D01*
X243059Y80424D01*
X243053Y80517D01*
X243051Y80610D01*
X243052Y80610D02*
X243054Y80740D01*
X243060Y80869D01*
X243070Y80999D01*
X243084Y81128D01*
X243102Y81256D01*
X243123Y81384D01*
X243149Y81511D01*
X243179Y81637D01*
X243212Y81763D01*
X243249Y81887D01*
X243290Y82010D01*
X243335Y82132D01*
X243383Y82252D01*
X243436Y82371D01*
X243491Y82488D01*
X243551Y82603D01*
X243614Y82717D01*
X243680Y82828D01*
X243749Y82938D01*
X243822Y83045D01*
X243899Y83150D01*
X247284Y79482D02*
X247234Y79401D01*
X247181Y79322D01*
X247125Y79245D01*
X247065Y79171D01*
X247002Y79100D01*
X246936Y79031D01*
X246868Y78964D01*
X246797Y78901D01*
X246723Y78841D01*
X246647Y78784D01*
X246568Y78730D01*
X246488Y78679D01*
X246405Y78632D01*
X246320Y78588D01*
X246234Y78548D01*
X246146Y78511D01*
X246057Y78478D01*
X245966Y78449D01*
X245874Y78424D01*
X245782Y78402D01*
X245688Y78385D01*
X245594Y78371D01*
X245499Y78361D01*
X245404Y78355D01*
X245309Y78353D01*
X248978Y82586D02*
X249029Y82667D01*
X249082Y82746D01*
X249138Y82823D01*
X249198Y82897D01*
X249261Y82968D01*
X249327Y83037D01*
X249395Y83104D01*
X249466Y83167D01*
X249540Y83227D01*
X249616Y83284D01*
X249695Y83338D01*
X249775Y83389D01*
X249858Y83436D01*
X249943Y83480D01*
X250029Y83520D01*
X250117Y83557D01*
X250206Y83590D01*
X250297Y83619D01*
X250388Y83644D01*
X250481Y83666D01*
X250575Y83683D01*
X250669Y83697D01*
X250764Y83707D01*
X250859Y83713D01*
X250954Y83715D01*
X248978Y82586D02*
X247285Y79481D01*
X245309Y89119D02*
X243051Y91942D01*
X253211Y91942D01*
X253211Y94764D02*
X253211Y89119D01*
X253211Y100930D02*
X243051Y100930D01*
X247567Y100930D02*
X247567Y106575D01*
X243051Y106575D02*
X253211Y106575D01*
X267181Y57438D02*
X277341Y57438D01*
X267181Y57438D02*
X267181Y60261D01*
X267182Y60261D02*
X267184Y60367D01*
X267190Y60472D01*
X267200Y60577D01*
X267214Y60682D01*
X267231Y60786D01*
X267253Y60889D01*
X267278Y60991D01*
X267307Y61093D01*
X267340Y61193D01*
X267377Y61292D01*
X267417Y61389D01*
X267461Y61485D01*
X267509Y61580D01*
X267560Y61672D01*
X267615Y61762D01*
X267672Y61851D01*
X267733Y61937D01*
X267798Y62020D01*
X267865Y62102D01*
X267935Y62180D01*
X268009Y62256D01*
X268085Y62330D01*
X268163Y62400D01*
X268245Y62467D01*
X268328Y62532D01*
X268414Y62593D01*
X268503Y62650D01*
X268593Y62705D01*
X268685Y62756D01*
X268780Y62804D01*
X268876Y62848D01*
X268973Y62888D01*
X269072Y62925D01*
X269172Y62958D01*
X269274Y62987D01*
X269376Y63012D01*
X269479Y63034D01*
X269583Y63051D01*
X269688Y63065D01*
X269793Y63075D01*
X269898Y63081D01*
X270004Y63083D01*
X270110Y63081D01*
X270215Y63075D01*
X270320Y63065D01*
X270425Y63051D01*
X270529Y63034D01*
X270632Y63012D01*
X270734Y62987D01*
X270836Y62958D01*
X270936Y62925D01*
X271035Y62888D01*
X271132Y62848D01*
X271228Y62804D01*
X271323Y62756D01*
X271415Y62705D01*
X271505Y62650D01*
X271594Y62593D01*
X271680Y62532D01*
X271763Y62467D01*
X271845Y62400D01*
X271923Y62330D01*
X271999Y62256D01*
X272073Y62180D01*
X272143Y62102D01*
X272210Y62020D01*
X272275Y61937D01*
X272336Y61851D01*
X272393Y61762D01*
X272448Y61672D01*
X272499Y61580D01*
X272547Y61485D01*
X272591Y61389D01*
X272631Y61292D01*
X272668Y61193D01*
X272701Y61093D01*
X272730Y60991D01*
X272755Y60889D01*
X272777Y60786D01*
X272794Y60682D01*
X272808Y60577D01*
X272818Y60472D01*
X272824Y60367D01*
X272826Y60261D01*
X272826Y57438D01*
X272826Y60825D02*
X277341Y63083D01*
X277341Y68175D02*
X267181Y71562D01*
X277341Y74948D01*
X274801Y74102D02*
X274801Y69022D01*
X277342Y83175D02*
X277340Y83268D01*
X277334Y83361D01*
X277325Y83454D01*
X277311Y83547D01*
X277294Y83638D01*
X277273Y83729D01*
X277248Y83819D01*
X277220Y83908D01*
X277188Y83996D01*
X277152Y84082D01*
X277113Y84167D01*
X277070Y84250D01*
X277024Y84331D01*
X276974Y84410D01*
X276922Y84487D01*
X276866Y84562D01*
X276807Y84634D01*
X276745Y84704D01*
X276681Y84772D01*
X276613Y84836D01*
X276543Y84898D01*
X276471Y84957D01*
X276396Y85013D01*
X276319Y85065D01*
X276240Y85115D01*
X276159Y85161D01*
X276076Y85204D01*
X275991Y85243D01*
X275905Y85279D01*
X275817Y85311D01*
X275728Y85339D01*
X275638Y85364D01*
X275547Y85385D01*
X275456Y85402D01*
X275363Y85416D01*
X275270Y85425D01*
X275177Y85431D01*
X275084Y85433D01*
X277342Y83175D02*
X277340Y83041D01*
X277334Y82906D01*
X277325Y82772D01*
X277312Y82638D01*
X277295Y82505D01*
X277274Y82372D01*
X277249Y82240D01*
X277221Y82108D01*
X277189Y81977D01*
X277154Y81848D01*
X277114Y81719D01*
X277072Y81592D01*
X277025Y81465D01*
X276975Y81340D01*
X276922Y81217D01*
X276865Y81095D01*
X276804Y80975D01*
X276741Y80856D01*
X276674Y80740D01*
X276603Y80625D01*
X276530Y80513D01*
X276453Y80402D01*
X276373Y80294D01*
X276291Y80188D01*
X276205Y80084D01*
X276116Y79983D01*
X276025Y79884D01*
X275931Y79788D01*
X269439Y80070D02*
X269346Y80072D01*
X269253Y80078D01*
X269160Y80087D01*
X269067Y80101D01*
X268976Y80118D01*
X268885Y80139D01*
X268795Y80164D01*
X268706Y80192D01*
X268618Y80224D01*
X268532Y80260D01*
X268447Y80299D01*
X268364Y80342D01*
X268283Y80388D01*
X268204Y80438D01*
X268127Y80490D01*
X268052Y80546D01*
X267980Y80605D01*
X267910Y80667D01*
X267842Y80731D01*
X267778Y80799D01*
X267716Y80869D01*
X267657Y80941D01*
X267601Y81016D01*
X267549Y81093D01*
X267499Y81172D01*
X267453Y81253D01*
X267410Y81336D01*
X267371Y81421D01*
X267335Y81507D01*
X267303Y81595D01*
X267275Y81684D01*
X267250Y81774D01*
X267229Y81865D01*
X267212Y81956D01*
X267198Y82049D01*
X267189Y82142D01*
X267183Y82235D01*
X267181Y82328D01*
X267182Y82328D02*
X267184Y82458D01*
X267190Y82587D01*
X267200Y82717D01*
X267214Y82846D01*
X267232Y82974D01*
X267253Y83102D01*
X267279Y83229D01*
X267309Y83355D01*
X267342Y83481D01*
X267379Y83605D01*
X267420Y83728D01*
X267465Y83850D01*
X267513Y83970D01*
X267566Y84089D01*
X267621Y84206D01*
X267681Y84321D01*
X267744Y84435D01*
X267810Y84546D01*
X267879Y84656D01*
X267952Y84763D01*
X268029Y84868D01*
X271414Y81200D02*
X271364Y81119D01*
X271311Y81040D01*
X271255Y80963D01*
X271195Y80889D01*
X271132Y80818D01*
X271066Y80749D01*
X270998Y80682D01*
X270927Y80619D01*
X270853Y80559D01*
X270777Y80502D01*
X270698Y80448D01*
X270618Y80397D01*
X270535Y80350D01*
X270450Y80306D01*
X270364Y80266D01*
X270276Y80229D01*
X270187Y80196D01*
X270096Y80167D01*
X270004Y80142D01*
X269912Y80120D01*
X269818Y80103D01*
X269724Y80089D01*
X269629Y80079D01*
X269534Y80073D01*
X269439Y80071D01*
X273108Y84304D02*
X273159Y84385D01*
X273212Y84464D01*
X273268Y84541D01*
X273328Y84615D01*
X273391Y84686D01*
X273457Y84755D01*
X273525Y84822D01*
X273596Y84885D01*
X273670Y84945D01*
X273746Y85002D01*
X273825Y85056D01*
X273905Y85107D01*
X273988Y85154D01*
X274073Y85198D01*
X274159Y85238D01*
X274247Y85275D01*
X274336Y85308D01*
X274427Y85337D01*
X274518Y85362D01*
X274611Y85384D01*
X274705Y85401D01*
X274799Y85415D01*
X274894Y85425D01*
X274989Y85431D01*
X275084Y85433D01*
X273108Y84304D02*
X271415Y81200D01*
X269439Y90837D02*
X267181Y93660D01*
X277341Y93660D01*
X277341Y96482D02*
X277341Y90837D01*
D11*
X887730Y82663D02*
X899470Y82663D01*
X899470Y82662D02*
X899603Y82664D01*
X899735Y82670D01*
X899867Y82680D01*
X899999Y82693D01*
X900131Y82711D01*
X900261Y82732D01*
X900392Y82757D01*
X900521Y82786D01*
X900649Y82819D01*
X900777Y82855D01*
X900903Y82895D01*
X901028Y82939D01*
X901152Y82987D01*
X901274Y83038D01*
X901395Y83093D01*
X901514Y83151D01*
X901632Y83213D01*
X901747Y83278D01*
X901861Y83347D01*
X901972Y83418D01*
X902081Y83494D01*
X902188Y83572D01*
X902293Y83653D01*
X902395Y83738D01*
X902495Y83825D01*
X902592Y83915D01*
X902687Y84008D01*
X902778Y84104D01*
X902867Y84202D01*
X902953Y84303D01*
X903036Y84407D01*
X903116Y84513D01*
X903192Y84621D01*
X903266Y84731D01*
X903336Y84844D01*
X903403Y84958D01*
X903466Y85075D01*
X903526Y85193D01*
X903583Y85313D01*
X903636Y85435D01*
X903685Y85558D01*
X903731Y85682D01*
X903773Y85808D01*
X903811Y85935D01*
X903846Y86063D01*
X903877Y86192D01*
X903904Y86321D01*
X903927Y86452D01*
X903947Y86583D01*
X903962Y86715D01*
X903974Y86847D01*
X903982Y86979D01*
X903986Y87112D01*
X903986Y87244D01*
X903982Y87377D01*
X903974Y87509D01*
X903962Y87641D01*
X903947Y87773D01*
X903927Y87904D01*
X903904Y88035D01*
X903877Y88164D01*
X903846Y88293D01*
X903811Y88421D01*
X903773Y88548D01*
X903731Y88674D01*
X903685Y88798D01*
X903636Y88921D01*
X903583Y89043D01*
X903526Y89163D01*
X903466Y89281D01*
X903403Y89398D01*
X903336Y89512D01*
X903266Y89625D01*
X903192Y89735D01*
X903116Y89843D01*
X903036Y89949D01*
X902953Y90053D01*
X902867Y90154D01*
X902778Y90252D01*
X902687Y90348D01*
X902592Y90441D01*
X902495Y90531D01*
X902395Y90618D01*
X902293Y90703D01*
X902188Y90784D01*
X902081Y90862D01*
X901972Y90938D01*
X901861Y91009D01*
X901747Y91078D01*
X901632Y91143D01*
X901514Y91205D01*
X901395Y91263D01*
X901274Y91318D01*
X901152Y91369D01*
X901028Y91417D01*
X900903Y91461D01*
X900777Y91501D01*
X900649Y91537D01*
X900521Y91570D01*
X900392Y91599D01*
X900261Y91624D01*
X900131Y91645D01*
X899999Y91663D01*
X899867Y91676D01*
X899735Y91686D01*
X899603Y91692D01*
X899470Y91694D01*
X887730Y91694D01*
X1719326Y81393D02*
X1731066Y81393D01*
X1731066Y81392D02*
X1731199Y81394D01*
X1731331Y81400D01*
X1731463Y81410D01*
X1731595Y81423D01*
X1731727Y81441D01*
X1731857Y81462D01*
X1731988Y81487D01*
X1732117Y81516D01*
X1732245Y81549D01*
X1732373Y81585D01*
X1732499Y81625D01*
X1732624Y81669D01*
X1732748Y81717D01*
X1732870Y81768D01*
X1732991Y81823D01*
X1733110Y81881D01*
X1733228Y81943D01*
X1733343Y82008D01*
X1733457Y82077D01*
X1733568Y82148D01*
X1733677Y82224D01*
X1733784Y82302D01*
X1733889Y82383D01*
X1733991Y82468D01*
X1734091Y82555D01*
X1734188Y82645D01*
X1734283Y82738D01*
X1734374Y82834D01*
X1734463Y82932D01*
X1734549Y83033D01*
X1734632Y83137D01*
X1734712Y83243D01*
X1734788Y83351D01*
X1734862Y83461D01*
X1734932Y83574D01*
X1734999Y83688D01*
X1735062Y83805D01*
X1735122Y83923D01*
X1735179Y84043D01*
X1735232Y84165D01*
X1735281Y84288D01*
X1735327Y84412D01*
X1735369Y84538D01*
X1735407Y84665D01*
X1735442Y84793D01*
X1735473Y84922D01*
X1735500Y85051D01*
X1735523Y85182D01*
X1735543Y85313D01*
X1735558Y85445D01*
X1735570Y85577D01*
X1735578Y85709D01*
X1735582Y85842D01*
X1735582Y85974D01*
X1735578Y86107D01*
X1735570Y86239D01*
X1735558Y86371D01*
X1735543Y86503D01*
X1735523Y86634D01*
X1735500Y86765D01*
X1735473Y86894D01*
X1735442Y87023D01*
X1735407Y87151D01*
X1735369Y87278D01*
X1735327Y87404D01*
X1735281Y87528D01*
X1735232Y87651D01*
X1735179Y87773D01*
X1735122Y87893D01*
X1735062Y88011D01*
X1734999Y88128D01*
X1734932Y88242D01*
X1734862Y88355D01*
X1734788Y88465D01*
X1734712Y88573D01*
X1734632Y88679D01*
X1734549Y88783D01*
X1734463Y88884D01*
X1734374Y88982D01*
X1734283Y89078D01*
X1734188Y89171D01*
X1734091Y89261D01*
X1733991Y89348D01*
X1733889Y89433D01*
X1733784Y89514D01*
X1733677Y89592D01*
X1733568Y89668D01*
X1733457Y89739D01*
X1733343Y89808D01*
X1733228Y89873D01*
X1733110Y89935D01*
X1732991Y89993D01*
X1732870Y90048D01*
X1732748Y90099D01*
X1732624Y90147D01*
X1732499Y90191D01*
X1732373Y90231D01*
X1732245Y90267D01*
X1732117Y90300D01*
X1731988Y90329D01*
X1731857Y90354D01*
X1731727Y90375D01*
X1731595Y90393D01*
X1731463Y90406D01*
X1731331Y90416D01*
X1731199Y90422D01*
X1731066Y90424D01*
X1719326Y90424D01*
D12*
X1907921Y56261D02*
X1909826Y48641D01*
X1911731Y53721D01*
X1913636Y48641D01*
X1915541Y56261D01*
X1920113Y56261D02*
X1922018Y48641D01*
X1923923Y53721D01*
X1925828Y48641D01*
X1927733Y56261D01*
X1932305Y56261D02*
X1934210Y48641D01*
X1936115Y53721D01*
X1938020Y48641D01*
X1939925Y56261D01*
X1944180Y49276D02*
X1944180Y48641D01*
X1944180Y49276D02*
X1944815Y49276D01*
X1944815Y48641D01*
X1944180Y48641D01*
X1949577Y48641D02*
X1949577Y60071D01*
X1949577Y56261D02*
X1952752Y56261D01*
X1952837Y56259D01*
X1952923Y56253D01*
X1953008Y56244D01*
X1953092Y56230D01*
X1953176Y56213D01*
X1953259Y56192D01*
X1953341Y56168D01*
X1953421Y56140D01*
X1953501Y56108D01*
X1953579Y56072D01*
X1953655Y56034D01*
X1953729Y55991D01*
X1953801Y55946D01*
X1953872Y55897D01*
X1953940Y55845D01*
X1954005Y55791D01*
X1954068Y55733D01*
X1954129Y55672D01*
X1954187Y55609D01*
X1954241Y55544D01*
X1954293Y55476D01*
X1954342Y55405D01*
X1954387Y55333D01*
X1954430Y55259D01*
X1954468Y55183D01*
X1954504Y55105D01*
X1954536Y55025D01*
X1954564Y54945D01*
X1954588Y54863D01*
X1954609Y54780D01*
X1954626Y54696D01*
X1954640Y54612D01*
X1954649Y54527D01*
X1954655Y54441D01*
X1954657Y54356D01*
X1954657Y48641D01*
X1962020Y53086D02*
X1964878Y53086D01*
X1962020Y53087D02*
X1961927Y53085D01*
X1961834Y53079D01*
X1961741Y53069D01*
X1961649Y53056D01*
X1961558Y53038D01*
X1961467Y53017D01*
X1961377Y52992D01*
X1961289Y52963D01*
X1961202Y52931D01*
X1961116Y52895D01*
X1961032Y52855D01*
X1960949Y52812D01*
X1960868Y52765D01*
X1960790Y52716D01*
X1960713Y52662D01*
X1960639Y52606D01*
X1960567Y52547D01*
X1960498Y52484D01*
X1960432Y52419D01*
X1960368Y52351D01*
X1960307Y52281D01*
X1960249Y52208D01*
X1960195Y52133D01*
X1960143Y52055D01*
X1960095Y51976D01*
X1960050Y51894D01*
X1960009Y51811D01*
X1959971Y51725D01*
X1959936Y51639D01*
X1959906Y51551D01*
X1959879Y51462D01*
X1959856Y51372D01*
X1959836Y51281D01*
X1959821Y51189D01*
X1959809Y51096D01*
X1959801Y51004D01*
X1959797Y50911D01*
X1959797Y50817D01*
X1959801Y50724D01*
X1959809Y50632D01*
X1959821Y50539D01*
X1959836Y50447D01*
X1959856Y50356D01*
X1959879Y50266D01*
X1959906Y50177D01*
X1959936Y50089D01*
X1959971Y50003D01*
X1960009Y49917D01*
X1960050Y49834D01*
X1960095Y49752D01*
X1960143Y49673D01*
X1960195Y49595D01*
X1960249Y49520D01*
X1960307Y49447D01*
X1960368Y49377D01*
X1960432Y49309D01*
X1960498Y49244D01*
X1960567Y49181D01*
X1960639Y49122D01*
X1960713Y49066D01*
X1960790Y49012D01*
X1960868Y48963D01*
X1960949Y48916D01*
X1961032Y48873D01*
X1961116Y48833D01*
X1961202Y48797D01*
X1961289Y48765D01*
X1961377Y48736D01*
X1961467Y48711D01*
X1961558Y48690D01*
X1961649Y48672D01*
X1961741Y48659D01*
X1961834Y48649D01*
X1961927Y48643D01*
X1962020Y48641D01*
X1964878Y48641D01*
X1964878Y54356D01*
X1964876Y54441D01*
X1964870Y54527D01*
X1964861Y54612D01*
X1964847Y54696D01*
X1964830Y54780D01*
X1964809Y54863D01*
X1964785Y54945D01*
X1964757Y55025D01*
X1964725Y55105D01*
X1964689Y55183D01*
X1964651Y55259D01*
X1964608Y55333D01*
X1964563Y55405D01*
X1964514Y55476D01*
X1964462Y55544D01*
X1964408Y55609D01*
X1964350Y55672D01*
X1964289Y55733D01*
X1964226Y55791D01*
X1964161Y55845D01*
X1964093Y55897D01*
X1964022Y55946D01*
X1963950Y55991D01*
X1963876Y56034D01*
X1963800Y56072D01*
X1963722Y56108D01*
X1963642Y56140D01*
X1963562Y56168D01*
X1963480Y56192D01*
X1963397Y56213D01*
X1963313Y56230D01*
X1963229Y56244D01*
X1963144Y56253D01*
X1963058Y56259D01*
X1962973Y56261D01*
X1960433Y56261D01*
X1970598Y56261D02*
X1970598Y44831D01*
X1970598Y56261D02*
X1973773Y56261D01*
X1973858Y56259D01*
X1973944Y56253D01*
X1974029Y56244D01*
X1974113Y56230D01*
X1974197Y56213D01*
X1974280Y56192D01*
X1974362Y56168D01*
X1974442Y56140D01*
X1974522Y56108D01*
X1974600Y56072D01*
X1974676Y56034D01*
X1974750Y55991D01*
X1974822Y55946D01*
X1974893Y55897D01*
X1974961Y55845D01*
X1975026Y55791D01*
X1975089Y55733D01*
X1975150Y55672D01*
X1975208Y55609D01*
X1975262Y55544D01*
X1975314Y55476D01*
X1975363Y55405D01*
X1975408Y55333D01*
X1975451Y55259D01*
X1975489Y55183D01*
X1975525Y55105D01*
X1975557Y55025D01*
X1975585Y54945D01*
X1975609Y54863D01*
X1975630Y54780D01*
X1975647Y54696D01*
X1975661Y54612D01*
X1975670Y54527D01*
X1975676Y54441D01*
X1975678Y54356D01*
X1975678Y50546D01*
X1975676Y50461D01*
X1975670Y50375D01*
X1975661Y50290D01*
X1975647Y50206D01*
X1975630Y50122D01*
X1975609Y50039D01*
X1975585Y49957D01*
X1975557Y49877D01*
X1975525Y49797D01*
X1975489Y49719D01*
X1975451Y49643D01*
X1975408Y49569D01*
X1975363Y49497D01*
X1975314Y49426D01*
X1975262Y49358D01*
X1975208Y49293D01*
X1975150Y49230D01*
X1975089Y49169D01*
X1975026Y49111D01*
X1974961Y49057D01*
X1974893Y49005D01*
X1974822Y48956D01*
X1974750Y48911D01*
X1974676Y48868D01*
X1974600Y48830D01*
X1974522Y48794D01*
X1974442Y48762D01*
X1974362Y48734D01*
X1974280Y48710D01*
X1974197Y48689D01*
X1974113Y48672D01*
X1974029Y48658D01*
X1973944Y48649D01*
X1973858Y48643D01*
X1973773Y48641D01*
X1970598Y48641D01*
X1980885Y44831D02*
X1980885Y56261D01*
X1984060Y56261D01*
X1984145Y56259D01*
X1984231Y56253D01*
X1984316Y56244D01*
X1984400Y56230D01*
X1984484Y56213D01*
X1984567Y56192D01*
X1984649Y56168D01*
X1984729Y56140D01*
X1984809Y56108D01*
X1984887Y56072D01*
X1984963Y56034D01*
X1985037Y55991D01*
X1985109Y55946D01*
X1985180Y55897D01*
X1985248Y55845D01*
X1985313Y55791D01*
X1985376Y55733D01*
X1985437Y55672D01*
X1985495Y55609D01*
X1985549Y55544D01*
X1985601Y55476D01*
X1985650Y55405D01*
X1985695Y55333D01*
X1985738Y55259D01*
X1985776Y55183D01*
X1985812Y55105D01*
X1985844Y55025D01*
X1985872Y54945D01*
X1985896Y54863D01*
X1985917Y54780D01*
X1985934Y54696D01*
X1985948Y54612D01*
X1985957Y54527D01*
X1985963Y54441D01*
X1985965Y54356D01*
X1985965Y50546D01*
X1985963Y50461D01*
X1985957Y50375D01*
X1985948Y50290D01*
X1985934Y50206D01*
X1985917Y50122D01*
X1985896Y50039D01*
X1985872Y49957D01*
X1985844Y49877D01*
X1985812Y49797D01*
X1985776Y49719D01*
X1985738Y49643D01*
X1985695Y49569D01*
X1985650Y49497D01*
X1985601Y49426D01*
X1985549Y49358D01*
X1985495Y49293D01*
X1985437Y49230D01*
X1985376Y49169D01*
X1985313Y49111D01*
X1985248Y49057D01*
X1985180Y49005D01*
X1985109Y48956D01*
X1985037Y48911D01*
X1984963Y48868D01*
X1984887Y48830D01*
X1984809Y48794D01*
X1984729Y48762D01*
X1984649Y48734D01*
X1984567Y48710D01*
X1984484Y48689D01*
X1984400Y48672D01*
X1984316Y48658D01*
X1984231Y48649D01*
X1984145Y48643D01*
X1984060Y48641D01*
X1980885Y48641D01*
X1990344Y44831D02*
X1991614Y44831D01*
X1995424Y56261D01*
X1990344Y56261D02*
X1992884Y48641D01*
X2004883Y48641D02*
X2004883Y60071D01*
X2004883Y48641D02*
X2001708Y48641D01*
X2001623Y48643D01*
X2001537Y48649D01*
X2001452Y48658D01*
X2001368Y48672D01*
X2001284Y48689D01*
X2001201Y48710D01*
X2001119Y48734D01*
X2001039Y48762D01*
X2000959Y48794D01*
X2000881Y48830D01*
X2000805Y48868D01*
X2000731Y48911D01*
X2000659Y48956D01*
X2000588Y49005D01*
X2000520Y49057D01*
X2000455Y49111D01*
X2000392Y49169D01*
X2000331Y49230D01*
X2000273Y49293D01*
X2000219Y49358D01*
X2000167Y49426D01*
X2000118Y49497D01*
X2000073Y49569D01*
X2000030Y49643D01*
X1999992Y49719D01*
X1999956Y49797D01*
X1999924Y49877D01*
X1999896Y49957D01*
X1999872Y50039D01*
X1999851Y50122D01*
X1999834Y50206D01*
X1999820Y50290D01*
X1999811Y50375D01*
X1999805Y50461D01*
X1999803Y50546D01*
X1999803Y54356D01*
X1999805Y54441D01*
X1999811Y54527D01*
X1999820Y54612D01*
X1999834Y54696D01*
X1999851Y54780D01*
X1999872Y54863D01*
X1999896Y54945D01*
X1999924Y55025D01*
X1999956Y55105D01*
X1999992Y55183D01*
X2000030Y55259D01*
X2000073Y55333D01*
X2000118Y55405D01*
X2000167Y55476D01*
X2000219Y55544D01*
X2000273Y55609D01*
X2000331Y55672D01*
X2000392Y55733D01*
X2000455Y55791D01*
X2000520Y55845D01*
X2000588Y55897D01*
X2000659Y55946D01*
X2000731Y55991D01*
X2000805Y56034D01*
X2000881Y56072D01*
X2000959Y56108D01*
X2001039Y56140D01*
X2001119Y56168D01*
X2001201Y56192D01*
X2001284Y56213D01*
X2001368Y56230D01*
X2001452Y56244D01*
X2001537Y56253D01*
X2001623Y56259D01*
X2001708Y56261D01*
X2004883Y56261D01*
X2012312Y53086D02*
X2015170Y53086D01*
X2012312Y53087D02*
X2012219Y53085D01*
X2012126Y53079D01*
X2012033Y53069D01*
X2011941Y53056D01*
X2011850Y53038D01*
X2011759Y53017D01*
X2011669Y52992D01*
X2011581Y52963D01*
X2011494Y52931D01*
X2011408Y52895D01*
X2011324Y52855D01*
X2011241Y52812D01*
X2011160Y52765D01*
X2011082Y52716D01*
X2011005Y52662D01*
X2010931Y52606D01*
X2010859Y52547D01*
X2010790Y52484D01*
X2010724Y52419D01*
X2010660Y52351D01*
X2010599Y52281D01*
X2010541Y52208D01*
X2010487Y52133D01*
X2010435Y52055D01*
X2010387Y51976D01*
X2010342Y51894D01*
X2010301Y51811D01*
X2010263Y51725D01*
X2010228Y51639D01*
X2010198Y51551D01*
X2010171Y51462D01*
X2010148Y51372D01*
X2010128Y51281D01*
X2010113Y51189D01*
X2010101Y51096D01*
X2010093Y51004D01*
X2010089Y50911D01*
X2010089Y50817D01*
X2010093Y50724D01*
X2010101Y50632D01*
X2010113Y50539D01*
X2010128Y50447D01*
X2010148Y50356D01*
X2010171Y50266D01*
X2010198Y50177D01*
X2010228Y50089D01*
X2010263Y50003D01*
X2010301Y49917D01*
X2010342Y49834D01*
X2010387Y49752D01*
X2010435Y49673D01*
X2010487Y49595D01*
X2010541Y49520D01*
X2010599Y49447D01*
X2010660Y49377D01*
X2010724Y49309D01*
X2010790Y49244D01*
X2010859Y49181D01*
X2010931Y49122D01*
X2011005Y49066D01*
X2011082Y49012D01*
X2011160Y48963D01*
X2011241Y48916D01*
X2011324Y48873D01*
X2011408Y48833D01*
X2011494Y48797D01*
X2011581Y48765D01*
X2011669Y48736D01*
X2011759Y48711D01*
X2011850Y48690D01*
X2011941Y48672D01*
X2012033Y48659D01*
X2012126Y48649D01*
X2012219Y48643D01*
X2012312Y48641D01*
X2015170Y48641D01*
X2015170Y54356D01*
X2015168Y54441D01*
X2015162Y54527D01*
X2015153Y54612D01*
X2015139Y54696D01*
X2015122Y54780D01*
X2015101Y54863D01*
X2015077Y54945D01*
X2015049Y55025D01*
X2015017Y55105D01*
X2014981Y55183D01*
X2014943Y55259D01*
X2014900Y55333D01*
X2014855Y55405D01*
X2014806Y55476D01*
X2014754Y55544D01*
X2014700Y55609D01*
X2014642Y55672D01*
X2014581Y55733D01*
X2014518Y55791D01*
X2014453Y55845D01*
X2014385Y55897D01*
X2014314Y55946D01*
X2014242Y55991D01*
X2014168Y56034D01*
X2014092Y56072D01*
X2014014Y56108D01*
X2013934Y56140D01*
X2013854Y56168D01*
X2013772Y56192D01*
X2013689Y56213D01*
X2013605Y56230D01*
X2013521Y56244D01*
X2013436Y56253D01*
X2013350Y56259D01*
X2013265Y56261D01*
X2010725Y56261D01*
X2020062Y56261D02*
X2025142Y56261D01*
X2020062Y48641D01*
X2025142Y48641D01*
X2031492Y48641D02*
X2034667Y48641D01*
X2031492Y48641D02*
X2031407Y48643D01*
X2031321Y48649D01*
X2031236Y48658D01*
X2031152Y48672D01*
X2031068Y48689D01*
X2030985Y48710D01*
X2030903Y48734D01*
X2030823Y48762D01*
X2030743Y48794D01*
X2030665Y48830D01*
X2030589Y48868D01*
X2030515Y48911D01*
X2030443Y48956D01*
X2030372Y49005D01*
X2030304Y49057D01*
X2030239Y49111D01*
X2030176Y49169D01*
X2030115Y49230D01*
X2030057Y49293D01*
X2030003Y49358D01*
X2029951Y49426D01*
X2029902Y49497D01*
X2029857Y49569D01*
X2029814Y49643D01*
X2029776Y49719D01*
X2029740Y49797D01*
X2029708Y49877D01*
X2029680Y49957D01*
X2029656Y50039D01*
X2029635Y50122D01*
X2029618Y50206D01*
X2029604Y50290D01*
X2029595Y50375D01*
X2029589Y50461D01*
X2029587Y50546D01*
X2029587Y53721D01*
X2029589Y53821D01*
X2029595Y53920D01*
X2029605Y54020D01*
X2029618Y54118D01*
X2029636Y54217D01*
X2029657Y54314D01*
X2029682Y54410D01*
X2029711Y54506D01*
X2029744Y54600D01*
X2029780Y54693D01*
X2029820Y54784D01*
X2029864Y54874D01*
X2029911Y54962D01*
X2029961Y55048D01*
X2030015Y55132D01*
X2030072Y55214D01*
X2030132Y55293D01*
X2030196Y55371D01*
X2030262Y55445D01*
X2030331Y55517D01*
X2030403Y55586D01*
X2030477Y55652D01*
X2030555Y55716D01*
X2030634Y55776D01*
X2030716Y55833D01*
X2030800Y55887D01*
X2030886Y55937D01*
X2030974Y55984D01*
X2031064Y56028D01*
X2031155Y56068D01*
X2031248Y56104D01*
X2031342Y56137D01*
X2031438Y56166D01*
X2031534Y56191D01*
X2031631Y56212D01*
X2031730Y56230D01*
X2031828Y56243D01*
X2031928Y56253D01*
X2032027Y56259D01*
X2032127Y56261D01*
X2032227Y56259D01*
X2032326Y56253D01*
X2032426Y56243D01*
X2032524Y56230D01*
X2032623Y56212D01*
X2032720Y56191D01*
X2032816Y56166D01*
X2032912Y56137D01*
X2033006Y56104D01*
X2033099Y56068D01*
X2033190Y56028D01*
X2033280Y55984D01*
X2033368Y55937D01*
X2033454Y55887D01*
X2033538Y55833D01*
X2033620Y55776D01*
X2033699Y55716D01*
X2033777Y55652D01*
X2033851Y55586D01*
X2033923Y55517D01*
X2033992Y55445D01*
X2034058Y55371D01*
X2034122Y55293D01*
X2034182Y55214D01*
X2034239Y55132D01*
X2034293Y55048D01*
X2034343Y54962D01*
X2034390Y54874D01*
X2034434Y54784D01*
X2034474Y54693D01*
X2034510Y54600D01*
X2034543Y54506D01*
X2034572Y54410D01*
X2034597Y54314D01*
X2034618Y54217D01*
X2034636Y54118D01*
X2034649Y54020D01*
X2034659Y53920D01*
X2034665Y53821D01*
X2034667Y53721D01*
X2034667Y52451D01*
X2029587Y52451D01*
X2039048Y49276D02*
X2039048Y48641D01*
X2039048Y49276D02*
X2039683Y49276D01*
X2039683Y48641D01*
X2039048Y48641D01*
X2045017Y53086D02*
X2048192Y51816D01*
X2045018Y53087D02*
X2044944Y53118D01*
X2044872Y53153D01*
X2044802Y53192D01*
X2044733Y53234D01*
X2044667Y53279D01*
X2044603Y53328D01*
X2044542Y53379D01*
X2044483Y53433D01*
X2044427Y53491D01*
X2044374Y53550D01*
X2044323Y53613D01*
X2044276Y53677D01*
X2044232Y53744D01*
X2044191Y53813D01*
X2044154Y53884D01*
X2044120Y53957D01*
X2044090Y54031D01*
X2044063Y54107D01*
X2044041Y54184D01*
X2044021Y54261D01*
X2044006Y54340D01*
X2043995Y54419D01*
X2043987Y54499D01*
X2043983Y54579D01*
X2043984Y54659D01*
X2043988Y54739D01*
X2043996Y54819D01*
X2044008Y54898D01*
X2044023Y54977D01*
X2044043Y55055D01*
X2044066Y55131D01*
X2044093Y55207D01*
X2044124Y55281D01*
X2044158Y55353D01*
X2044196Y55424D01*
X2044237Y55493D01*
X2044281Y55560D01*
X2044329Y55624D01*
X2044379Y55686D01*
X2044433Y55746D01*
X2044489Y55803D01*
X2044549Y55857D01*
X2044610Y55908D01*
X2044674Y55956D01*
X2044741Y56001D01*
X2044809Y56042D01*
X2044880Y56081D01*
X2044952Y56115D01*
X2045026Y56146D01*
X2045101Y56174D01*
X2045178Y56198D01*
X2045255Y56218D01*
X2045334Y56234D01*
X2045413Y56247D01*
X2045492Y56255D01*
X2045572Y56260D01*
X2045653Y56261D01*
X2045652Y56260D02*
X2045825Y56256D01*
X2045999Y56247D01*
X2046171Y56234D01*
X2046344Y56217D01*
X2046516Y56196D01*
X2046688Y56171D01*
X2046858Y56141D01*
X2047029Y56108D01*
X2047198Y56070D01*
X2047366Y56028D01*
X2047533Y55983D01*
X2047699Y55933D01*
X2047864Y55879D01*
X2048028Y55822D01*
X2048190Y55760D01*
X2048350Y55695D01*
X2048509Y55625D01*
X2048192Y51815D02*
X2048266Y51784D01*
X2048338Y51749D01*
X2048408Y51710D01*
X2048477Y51668D01*
X2048543Y51623D01*
X2048607Y51574D01*
X2048668Y51523D01*
X2048727Y51469D01*
X2048783Y51411D01*
X2048836Y51352D01*
X2048887Y51289D01*
X2048934Y51225D01*
X2048978Y51158D01*
X2049019Y51089D01*
X2049056Y51018D01*
X2049090Y50945D01*
X2049120Y50871D01*
X2049147Y50795D01*
X2049169Y50718D01*
X2049189Y50641D01*
X2049204Y50562D01*
X2049215Y50483D01*
X2049223Y50403D01*
X2049227Y50323D01*
X2049226Y50243D01*
X2049222Y50163D01*
X2049214Y50083D01*
X2049202Y50004D01*
X2049187Y49925D01*
X2049167Y49847D01*
X2049144Y49771D01*
X2049117Y49695D01*
X2049086Y49621D01*
X2049052Y49549D01*
X2049014Y49478D01*
X2048973Y49409D01*
X2048929Y49342D01*
X2048881Y49278D01*
X2048831Y49216D01*
X2048777Y49156D01*
X2048721Y49099D01*
X2048661Y49045D01*
X2048600Y48994D01*
X2048536Y48946D01*
X2048469Y48901D01*
X2048401Y48860D01*
X2048330Y48821D01*
X2048258Y48787D01*
X2048184Y48756D01*
X2048109Y48728D01*
X2048032Y48704D01*
X2047955Y48684D01*
X2047876Y48668D01*
X2047797Y48655D01*
X2047718Y48647D01*
X2047638Y48642D01*
X2047557Y48641D01*
X2047557Y48640D02*
X2047302Y48647D01*
X2047048Y48659D01*
X2046794Y48678D01*
X2046540Y48703D01*
X2046288Y48733D01*
X2046036Y48770D01*
X2045784Y48813D01*
X2045534Y48861D01*
X2045286Y48916D01*
X2045038Y48976D01*
X2044792Y49042D01*
X2044548Y49114D01*
X2044305Y49192D01*
X2044064Y49275D01*
X2055876Y48641D02*
X2059051Y48641D01*
X2055876Y48641D02*
X2055791Y48643D01*
X2055705Y48649D01*
X2055620Y48658D01*
X2055536Y48672D01*
X2055452Y48689D01*
X2055369Y48710D01*
X2055287Y48734D01*
X2055207Y48762D01*
X2055127Y48794D01*
X2055049Y48830D01*
X2054973Y48868D01*
X2054899Y48911D01*
X2054827Y48956D01*
X2054756Y49005D01*
X2054688Y49057D01*
X2054623Y49111D01*
X2054560Y49169D01*
X2054499Y49230D01*
X2054441Y49293D01*
X2054387Y49358D01*
X2054335Y49426D01*
X2054286Y49497D01*
X2054241Y49569D01*
X2054198Y49643D01*
X2054160Y49719D01*
X2054124Y49797D01*
X2054092Y49877D01*
X2054064Y49957D01*
X2054040Y50039D01*
X2054019Y50122D01*
X2054002Y50206D01*
X2053988Y50290D01*
X2053979Y50375D01*
X2053973Y50461D01*
X2053971Y50546D01*
X2053971Y53721D01*
X2053973Y53821D01*
X2053979Y53920D01*
X2053989Y54020D01*
X2054002Y54118D01*
X2054020Y54217D01*
X2054041Y54314D01*
X2054066Y54410D01*
X2054095Y54506D01*
X2054128Y54600D01*
X2054164Y54693D01*
X2054204Y54784D01*
X2054248Y54874D01*
X2054295Y54962D01*
X2054345Y55048D01*
X2054399Y55132D01*
X2054456Y55214D01*
X2054516Y55293D01*
X2054580Y55371D01*
X2054646Y55445D01*
X2054715Y55517D01*
X2054787Y55586D01*
X2054861Y55652D01*
X2054939Y55716D01*
X2055018Y55776D01*
X2055100Y55833D01*
X2055184Y55887D01*
X2055270Y55937D01*
X2055358Y55984D01*
X2055448Y56028D01*
X2055539Y56068D01*
X2055632Y56104D01*
X2055726Y56137D01*
X2055822Y56166D01*
X2055918Y56191D01*
X2056015Y56212D01*
X2056114Y56230D01*
X2056212Y56243D01*
X2056312Y56253D01*
X2056411Y56259D01*
X2056511Y56261D01*
X2056611Y56259D01*
X2056710Y56253D01*
X2056810Y56243D01*
X2056908Y56230D01*
X2057007Y56212D01*
X2057104Y56191D01*
X2057200Y56166D01*
X2057296Y56137D01*
X2057390Y56104D01*
X2057483Y56068D01*
X2057574Y56028D01*
X2057664Y55984D01*
X2057752Y55937D01*
X2057838Y55887D01*
X2057922Y55833D01*
X2058004Y55776D01*
X2058083Y55716D01*
X2058161Y55652D01*
X2058235Y55586D01*
X2058307Y55517D01*
X2058376Y55445D01*
X2058442Y55371D01*
X2058506Y55293D01*
X2058566Y55214D01*
X2058623Y55132D01*
X2058677Y55048D01*
X2058727Y54962D01*
X2058774Y54874D01*
X2058818Y54784D01*
X2058858Y54693D01*
X2058894Y54600D01*
X2058927Y54506D01*
X2058956Y54410D01*
X2058981Y54314D01*
X2059002Y54217D01*
X2059020Y54118D01*
X2059033Y54020D01*
X2059043Y53920D01*
X2059049Y53821D01*
X2059051Y53721D01*
X2059051Y52451D01*
X2053971Y52451D01*
D10*
X2110431Y11684D02*
X2110524Y11686D01*
X2110617Y11692D01*
X2110710Y11701D01*
X2110803Y11715D01*
X2110894Y11732D01*
X2110985Y11753D01*
X2111075Y11778D01*
X2111164Y11806D01*
X2111252Y11838D01*
X2111338Y11874D01*
X2111423Y11913D01*
X2111506Y11956D01*
X2111587Y12002D01*
X2111666Y12052D01*
X2111743Y12104D01*
X2111818Y12160D01*
X2111890Y12219D01*
X2111960Y12281D01*
X2112028Y12345D01*
X2112092Y12413D01*
X2112154Y12483D01*
X2112213Y12555D01*
X2112269Y12630D01*
X2112321Y12707D01*
X2112371Y12786D01*
X2112417Y12867D01*
X2112460Y12950D01*
X2112499Y13035D01*
X2112535Y13121D01*
X2112567Y13209D01*
X2112595Y13298D01*
X2112620Y13388D01*
X2112641Y13479D01*
X2112658Y13570D01*
X2112672Y13663D01*
X2112681Y13756D01*
X2112687Y13849D01*
X2112689Y13942D01*
X2110431Y11684D02*
X2110297Y11686D01*
X2110162Y11692D01*
X2110028Y11701D01*
X2109894Y11714D01*
X2109761Y11731D01*
X2109628Y11752D01*
X2109496Y11777D01*
X2109364Y11805D01*
X2109233Y11837D01*
X2109104Y11872D01*
X2108975Y11912D01*
X2108848Y11955D01*
X2108721Y12001D01*
X2108596Y12051D01*
X2108473Y12104D01*
X2108351Y12161D01*
X2108231Y12222D01*
X2108112Y12285D01*
X2107996Y12352D01*
X2107881Y12423D01*
X2107769Y12496D01*
X2107658Y12573D01*
X2107550Y12653D01*
X2107444Y12735D01*
X2107340Y12821D01*
X2107239Y12910D01*
X2107140Y13001D01*
X2107044Y13095D01*
X2107327Y19586D02*
X2107329Y19679D01*
X2107335Y19772D01*
X2107344Y19865D01*
X2107358Y19958D01*
X2107375Y20049D01*
X2107396Y20140D01*
X2107421Y20230D01*
X2107449Y20319D01*
X2107481Y20407D01*
X2107517Y20493D01*
X2107556Y20578D01*
X2107599Y20661D01*
X2107645Y20742D01*
X2107695Y20821D01*
X2107747Y20898D01*
X2107803Y20973D01*
X2107862Y21045D01*
X2107924Y21115D01*
X2107988Y21183D01*
X2108056Y21247D01*
X2108126Y21309D01*
X2108198Y21368D01*
X2108273Y21424D01*
X2108350Y21476D01*
X2108429Y21526D01*
X2108510Y21572D01*
X2108593Y21615D01*
X2108678Y21654D01*
X2108764Y21690D01*
X2108852Y21722D01*
X2108941Y21750D01*
X2109031Y21775D01*
X2109122Y21796D01*
X2109213Y21813D01*
X2109306Y21827D01*
X2109399Y21836D01*
X2109492Y21842D01*
X2109585Y21844D01*
X2109715Y21842D01*
X2109844Y21836D01*
X2109974Y21826D01*
X2110103Y21812D01*
X2110231Y21794D01*
X2110359Y21773D01*
X2110486Y21747D01*
X2110612Y21717D01*
X2110738Y21684D01*
X2110862Y21647D01*
X2110985Y21606D01*
X2111107Y21561D01*
X2111227Y21513D01*
X2111346Y21460D01*
X2111463Y21405D01*
X2111578Y21345D01*
X2111692Y21283D01*
X2111803Y21216D01*
X2111913Y21147D01*
X2112020Y21074D01*
X2112125Y20997D01*
X2108456Y17611D02*
X2108375Y17661D01*
X2108296Y17714D01*
X2108219Y17770D01*
X2108145Y17830D01*
X2108074Y17893D01*
X2108005Y17959D01*
X2107938Y18027D01*
X2107875Y18098D01*
X2107815Y18172D01*
X2107758Y18248D01*
X2107704Y18327D01*
X2107653Y18407D01*
X2107606Y18490D01*
X2107562Y18575D01*
X2107522Y18661D01*
X2107485Y18749D01*
X2107452Y18838D01*
X2107423Y18929D01*
X2107398Y19021D01*
X2107376Y19113D01*
X2107359Y19207D01*
X2107345Y19301D01*
X2107335Y19396D01*
X2107329Y19491D01*
X2107327Y19586D01*
X2111560Y15918D02*
X2111641Y15867D01*
X2111720Y15814D01*
X2111797Y15758D01*
X2111871Y15698D01*
X2111942Y15635D01*
X2112011Y15569D01*
X2112078Y15501D01*
X2112141Y15430D01*
X2112201Y15356D01*
X2112258Y15280D01*
X2112312Y15201D01*
X2112363Y15121D01*
X2112410Y15038D01*
X2112454Y14953D01*
X2112494Y14867D01*
X2112531Y14779D01*
X2112564Y14690D01*
X2112593Y14599D01*
X2112618Y14508D01*
X2112640Y14415D01*
X2112657Y14321D01*
X2112671Y14227D01*
X2112681Y14132D01*
X2112687Y14037D01*
X2112689Y13942D01*
X2111560Y15917D02*
X2108456Y17611D01*
X2120154Y21844D02*
X2120154Y11684D01*
X2117332Y21844D02*
X2122976Y21844D01*
X2128510Y21844D02*
X2128510Y11684D01*
X2128510Y21844D02*
X2131332Y21844D01*
X2131438Y21842D01*
X2131543Y21836D01*
X2131648Y21826D01*
X2131753Y21812D01*
X2131857Y21795D01*
X2131960Y21773D01*
X2132062Y21748D01*
X2132164Y21719D01*
X2132264Y21686D01*
X2132363Y21649D01*
X2132460Y21609D01*
X2132556Y21565D01*
X2132651Y21517D01*
X2132743Y21466D01*
X2132833Y21411D01*
X2132922Y21354D01*
X2133008Y21293D01*
X2133091Y21228D01*
X2133173Y21161D01*
X2133251Y21091D01*
X2133327Y21017D01*
X2133401Y20941D01*
X2133471Y20863D01*
X2133538Y20781D01*
X2133603Y20698D01*
X2133664Y20612D01*
X2133721Y20523D01*
X2133776Y20433D01*
X2133827Y20341D01*
X2133875Y20246D01*
X2133919Y20150D01*
X2133959Y20053D01*
X2133996Y19954D01*
X2134029Y19854D01*
X2134058Y19752D01*
X2134083Y19650D01*
X2134105Y19547D01*
X2134122Y19443D01*
X2134136Y19338D01*
X2134146Y19233D01*
X2134152Y19128D01*
X2134154Y19022D01*
X2134152Y18916D01*
X2134146Y18811D01*
X2134136Y18706D01*
X2134122Y18601D01*
X2134105Y18497D01*
X2134083Y18394D01*
X2134058Y18292D01*
X2134029Y18190D01*
X2133996Y18090D01*
X2133959Y17991D01*
X2133919Y17894D01*
X2133875Y17798D01*
X2133827Y17703D01*
X2133776Y17611D01*
X2133721Y17521D01*
X2133664Y17432D01*
X2133603Y17346D01*
X2133538Y17263D01*
X2133471Y17181D01*
X2133401Y17103D01*
X2133327Y17027D01*
X2133251Y16953D01*
X2133173Y16883D01*
X2133091Y16816D01*
X2133008Y16751D01*
X2132922Y16690D01*
X2132833Y16633D01*
X2132743Y16578D01*
X2132651Y16527D01*
X2132556Y16479D01*
X2132460Y16435D01*
X2132363Y16395D01*
X2132264Y16358D01*
X2132164Y16325D01*
X2132062Y16296D01*
X2131960Y16271D01*
X2131857Y16249D01*
X2131753Y16232D01*
X2131648Y16218D01*
X2131543Y16208D01*
X2131438Y16202D01*
X2131332Y16200D01*
X2128510Y16200D01*
X2131896Y16200D02*
X2134154Y11684D01*
X2141486Y15635D02*
X2144026Y15635D01*
X2141486Y15636D02*
X2141399Y15634D01*
X2141311Y15628D01*
X2141224Y15619D01*
X2141138Y15605D01*
X2141052Y15588D01*
X2140968Y15567D01*
X2140884Y15542D01*
X2140801Y15513D01*
X2140720Y15481D01*
X2140640Y15446D01*
X2140562Y15407D01*
X2140485Y15364D01*
X2140411Y15318D01*
X2140339Y15269D01*
X2140269Y15217D01*
X2140201Y15161D01*
X2140136Y15103D01*
X2140073Y15042D01*
X2140014Y14978D01*
X2139957Y14911D01*
X2139903Y14843D01*
X2139852Y14771D01*
X2139805Y14698D01*
X2139760Y14623D01*
X2139719Y14545D01*
X2139682Y14466D01*
X2139648Y14386D01*
X2139618Y14304D01*
X2139591Y14221D01*
X2139568Y14136D01*
X2139549Y14051D01*
X2139534Y13965D01*
X2139522Y13878D01*
X2139514Y13791D01*
X2139510Y13704D01*
X2139510Y13616D01*
X2139514Y13529D01*
X2139522Y13442D01*
X2139534Y13355D01*
X2139549Y13269D01*
X2139568Y13184D01*
X2139591Y13099D01*
X2139618Y13016D01*
X2139648Y12934D01*
X2139682Y12854D01*
X2139719Y12775D01*
X2139760Y12697D01*
X2139805Y12622D01*
X2139852Y12549D01*
X2139903Y12477D01*
X2139957Y12409D01*
X2140014Y12342D01*
X2140073Y12278D01*
X2140136Y12217D01*
X2140201Y12159D01*
X2140269Y12103D01*
X2140339Y12051D01*
X2140411Y12002D01*
X2140485Y11956D01*
X2140562Y11913D01*
X2140640Y11874D01*
X2140720Y11839D01*
X2140801Y11807D01*
X2140884Y11778D01*
X2140968Y11753D01*
X2141052Y11732D01*
X2141138Y11715D01*
X2141224Y11701D01*
X2141311Y11692D01*
X2141399Y11686D01*
X2141486Y11684D01*
X2144026Y11684D01*
X2144026Y16764D01*
X2144025Y16764D02*
X2144023Y16845D01*
X2144017Y16925D01*
X2144008Y17005D01*
X2143994Y17084D01*
X2143977Y17163D01*
X2143956Y17241D01*
X2143932Y17318D01*
X2143904Y17393D01*
X2143872Y17467D01*
X2143837Y17540D01*
X2143798Y17611D01*
X2143756Y17679D01*
X2143711Y17746D01*
X2143663Y17811D01*
X2143611Y17873D01*
X2143557Y17932D01*
X2143500Y17989D01*
X2143441Y18043D01*
X2143379Y18095D01*
X2143314Y18143D01*
X2143247Y18188D01*
X2143179Y18230D01*
X2143108Y18269D01*
X2143035Y18304D01*
X2142961Y18336D01*
X2142886Y18364D01*
X2142809Y18388D01*
X2142731Y18409D01*
X2142652Y18426D01*
X2142573Y18440D01*
X2142493Y18449D01*
X2142413Y18455D01*
X2142332Y18457D01*
X2140075Y18457D01*
X2150676Y18457D02*
X2150676Y11684D01*
X2150676Y18457D02*
X2155756Y18457D01*
X2155837Y18455D01*
X2155917Y18449D01*
X2155997Y18440D01*
X2156076Y18426D01*
X2156155Y18409D01*
X2156233Y18388D01*
X2156310Y18364D01*
X2156385Y18336D01*
X2156459Y18304D01*
X2156532Y18269D01*
X2156603Y18230D01*
X2156671Y18188D01*
X2156738Y18143D01*
X2156803Y18095D01*
X2156865Y18043D01*
X2156924Y17989D01*
X2156981Y17932D01*
X2157035Y17873D01*
X2157087Y17811D01*
X2157135Y17746D01*
X2157180Y17679D01*
X2157222Y17611D01*
X2157261Y17540D01*
X2157296Y17467D01*
X2157328Y17393D01*
X2157356Y17318D01*
X2157380Y17241D01*
X2157401Y17163D01*
X2157418Y17084D01*
X2157432Y17005D01*
X2157441Y16925D01*
X2157447Y16845D01*
X2157449Y16764D01*
X2157450Y16764D02*
X2157450Y11684D01*
X2154063Y11684D02*
X2154063Y18457D01*
X2170419Y21844D02*
X2170419Y11684D01*
X2170419Y21844D02*
X2173242Y21844D01*
X2173348Y21842D01*
X2173453Y21836D01*
X2173558Y21826D01*
X2173663Y21812D01*
X2173767Y21795D01*
X2173870Y21773D01*
X2173972Y21748D01*
X2174074Y21719D01*
X2174174Y21686D01*
X2174273Y21649D01*
X2174370Y21609D01*
X2174466Y21565D01*
X2174561Y21517D01*
X2174653Y21466D01*
X2174743Y21411D01*
X2174832Y21354D01*
X2174918Y21293D01*
X2175001Y21228D01*
X2175083Y21161D01*
X2175161Y21091D01*
X2175237Y21017D01*
X2175311Y20941D01*
X2175381Y20863D01*
X2175448Y20781D01*
X2175513Y20698D01*
X2175574Y20612D01*
X2175631Y20523D01*
X2175686Y20433D01*
X2175737Y20341D01*
X2175785Y20246D01*
X2175829Y20150D01*
X2175869Y20053D01*
X2175906Y19954D01*
X2175939Y19854D01*
X2175968Y19752D01*
X2175993Y19650D01*
X2176015Y19547D01*
X2176032Y19443D01*
X2176046Y19338D01*
X2176056Y19233D01*
X2176062Y19128D01*
X2176064Y19022D01*
X2176062Y18916D01*
X2176056Y18811D01*
X2176046Y18706D01*
X2176032Y18601D01*
X2176015Y18497D01*
X2175993Y18394D01*
X2175968Y18292D01*
X2175939Y18190D01*
X2175906Y18090D01*
X2175869Y17991D01*
X2175829Y17894D01*
X2175785Y17798D01*
X2175737Y17703D01*
X2175686Y17611D01*
X2175631Y17521D01*
X2175574Y17432D01*
X2175513Y17346D01*
X2175448Y17263D01*
X2175381Y17181D01*
X2175311Y17103D01*
X2175237Y17027D01*
X2175161Y16953D01*
X2175083Y16883D01*
X2175001Y16816D01*
X2174918Y16751D01*
X2174832Y16690D01*
X2174743Y16633D01*
X2174653Y16578D01*
X2174561Y16527D01*
X2174466Y16479D01*
X2174370Y16435D01*
X2174273Y16395D01*
X2174174Y16358D01*
X2174074Y16325D01*
X2173972Y16296D01*
X2173870Y16271D01*
X2173767Y16249D01*
X2173663Y16232D01*
X2173558Y16218D01*
X2173453Y16208D01*
X2173348Y16202D01*
X2173242Y16200D01*
X2170419Y16200D01*
X2173806Y16200D02*
X2176064Y11684D01*
X2183216Y11684D02*
X2186039Y11684D01*
X2183216Y11684D02*
X2183135Y11686D01*
X2183055Y11692D01*
X2182975Y11701D01*
X2182896Y11715D01*
X2182817Y11732D01*
X2182739Y11753D01*
X2182662Y11777D01*
X2182587Y11805D01*
X2182513Y11837D01*
X2182440Y11872D01*
X2182370Y11911D01*
X2182301Y11953D01*
X2182234Y11998D01*
X2182169Y12046D01*
X2182107Y12098D01*
X2182048Y12152D01*
X2181991Y12209D01*
X2181937Y12268D01*
X2181885Y12330D01*
X2181837Y12395D01*
X2181792Y12462D01*
X2181750Y12531D01*
X2181711Y12601D01*
X2181676Y12674D01*
X2181644Y12748D01*
X2181616Y12823D01*
X2181592Y12900D01*
X2181571Y12978D01*
X2181554Y13057D01*
X2181540Y13136D01*
X2181531Y13216D01*
X2181525Y13296D01*
X2181523Y13377D01*
X2181523Y16200D01*
X2181525Y16293D01*
X2181531Y16386D01*
X2181540Y16479D01*
X2181554Y16572D01*
X2181571Y16663D01*
X2181592Y16754D01*
X2181617Y16844D01*
X2181645Y16933D01*
X2181677Y17021D01*
X2181713Y17107D01*
X2181752Y17192D01*
X2181795Y17275D01*
X2181841Y17356D01*
X2181891Y17435D01*
X2181943Y17512D01*
X2181999Y17587D01*
X2182058Y17659D01*
X2182120Y17729D01*
X2182184Y17797D01*
X2182252Y17861D01*
X2182322Y17923D01*
X2182394Y17982D01*
X2182469Y18038D01*
X2182546Y18090D01*
X2182625Y18140D01*
X2182706Y18186D01*
X2182789Y18229D01*
X2182874Y18268D01*
X2182960Y18304D01*
X2183048Y18336D01*
X2183137Y18364D01*
X2183227Y18389D01*
X2183318Y18410D01*
X2183409Y18427D01*
X2183502Y18441D01*
X2183595Y18450D01*
X2183688Y18456D01*
X2183781Y18458D01*
X2183874Y18456D01*
X2183967Y18450D01*
X2184060Y18441D01*
X2184153Y18427D01*
X2184244Y18410D01*
X2184335Y18389D01*
X2184425Y18364D01*
X2184514Y18336D01*
X2184602Y18304D01*
X2184688Y18268D01*
X2184773Y18229D01*
X2184856Y18186D01*
X2184937Y18140D01*
X2185016Y18090D01*
X2185093Y18038D01*
X2185168Y17982D01*
X2185240Y17923D01*
X2185310Y17861D01*
X2185378Y17797D01*
X2185442Y17729D01*
X2185504Y17659D01*
X2185563Y17587D01*
X2185619Y17512D01*
X2185671Y17435D01*
X2185721Y17356D01*
X2185767Y17275D01*
X2185810Y17192D01*
X2185849Y17107D01*
X2185885Y17021D01*
X2185917Y16933D01*
X2185945Y16844D01*
X2185970Y16754D01*
X2185991Y16663D01*
X2186008Y16572D01*
X2186022Y16479D01*
X2186031Y16386D01*
X2186037Y16293D01*
X2186039Y16200D01*
X2186039Y15071D01*
X2181523Y15071D01*
X2191048Y18457D02*
X2193306Y11684D01*
X2195564Y18457D01*
X2199882Y12248D02*
X2199882Y11684D01*
X2199882Y12248D02*
X2200446Y12248D01*
X2200446Y11684D01*
X2199882Y11684D01*
X2207542Y11684D02*
X2209800Y11684D01*
X2207542Y11684D02*
X2207449Y11686D01*
X2207356Y11692D01*
X2207263Y11701D01*
X2207170Y11715D01*
X2207079Y11732D01*
X2206988Y11753D01*
X2206898Y11778D01*
X2206809Y11806D01*
X2206721Y11838D01*
X2206635Y11874D01*
X2206550Y11913D01*
X2206467Y11956D01*
X2206386Y12002D01*
X2206307Y12052D01*
X2206230Y12104D01*
X2206155Y12160D01*
X2206083Y12219D01*
X2206013Y12281D01*
X2205945Y12345D01*
X2205881Y12413D01*
X2205819Y12483D01*
X2205760Y12555D01*
X2205704Y12630D01*
X2205652Y12707D01*
X2205602Y12786D01*
X2205556Y12867D01*
X2205513Y12950D01*
X2205474Y13035D01*
X2205438Y13121D01*
X2205406Y13209D01*
X2205378Y13298D01*
X2205353Y13388D01*
X2205332Y13479D01*
X2205315Y13570D01*
X2205301Y13663D01*
X2205292Y13756D01*
X2205286Y13849D01*
X2205284Y13942D01*
X2205284Y19586D01*
X2205286Y19679D01*
X2205292Y19772D01*
X2205301Y19865D01*
X2205315Y19958D01*
X2205332Y20049D01*
X2205353Y20140D01*
X2205378Y20230D01*
X2205406Y20319D01*
X2205438Y20407D01*
X2205474Y20493D01*
X2205513Y20578D01*
X2205556Y20661D01*
X2205602Y20742D01*
X2205652Y20821D01*
X2205704Y20898D01*
X2205760Y20973D01*
X2205819Y21045D01*
X2205881Y21115D01*
X2205945Y21183D01*
X2206013Y21247D01*
X2206083Y21309D01*
X2206155Y21368D01*
X2206230Y21424D01*
X2206307Y21476D01*
X2206386Y21526D01*
X2206467Y21572D01*
X2206550Y21615D01*
X2206635Y21654D01*
X2206721Y21690D01*
X2206809Y21722D01*
X2206898Y21750D01*
X2206988Y21775D01*
X2207079Y21796D01*
X2207170Y21813D01*
X2207263Y21827D01*
X2207356Y21836D01*
X2207449Y21842D01*
X2207542Y21844D01*
X2209800Y21844D01*
D13*
X1934464Y96153D02*
X1943495Y127762D01*
X1934464Y96153D02*
X1957042Y96153D01*
X1950268Y105184D02*
X1950268Y87122D01*
X1974116Y87122D02*
X1974116Y127762D01*
X1987663Y105184D01*
X2001210Y127762D01*
X2001210Y87122D01*
X2020024Y109700D02*
X2031313Y109700D01*
X2031588Y109697D01*
X2031863Y109687D01*
X2032137Y109670D01*
X2032411Y109646D01*
X2032684Y109616D01*
X2032957Y109580D01*
X2033228Y109536D01*
X2033499Y109486D01*
X2033768Y109430D01*
X2034035Y109367D01*
X2034301Y109297D01*
X2034565Y109221D01*
X2034828Y109139D01*
X2035088Y109050D01*
X2035346Y108955D01*
X2035601Y108854D01*
X2035854Y108746D01*
X2036105Y108633D01*
X2036352Y108513D01*
X2036597Y108387D01*
X2036838Y108256D01*
X2037076Y108118D01*
X2037311Y107975D01*
X2037542Y107826D01*
X2037769Y107672D01*
X2037993Y107512D01*
X2038213Y107346D01*
X2038428Y107176D01*
X2038639Y107000D01*
X2038846Y106819D01*
X2039049Y106633D01*
X2039247Y106442D01*
X2039440Y106246D01*
X2039628Y106046D01*
X2039812Y105841D01*
X2039990Y105632D01*
X2040164Y105419D01*
X2040332Y105201D01*
X2040494Y104980D01*
X2040651Y104754D01*
X2040803Y104525D01*
X2040949Y104292D01*
X2041090Y104056D01*
X2041224Y103816D01*
X2041353Y103573D01*
X2041476Y103327D01*
X2041592Y103078D01*
X2041703Y102826D01*
X2041807Y102572D01*
X2041905Y102315D01*
X2041997Y102056D01*
X2042083Y101795D01*
X2042162Y101531D01*
X2042235Y101266D01*
X2042301Y101000D01*
X2042361Y100731D01*
X2042414Y100461D01*
X2042461Y100191D01*
X2042501Y99919D01*
X2042534Y99646D01*
X2042561Y99372D01*
X2042581Y99098D01*
X2042594Y98823D01*
X2042601Y98548D01*
X2042601Y98274D01*
X2042594Y97999D01*
X2042581Y97724D01*
X2042561Y97450D01*
X2042534Y97176D01*
X2042501Y96903D01*
X2042461Y96631D01*
X2042414Y96361D01*
X2042361Y96091D01*
X2042301Y95822D01*
X2042235Y95556D01*
X2042162Y95291D01*
X2042083Y95027D01*
X2041997Y94766D01*
X2041905Y94507D01*
X2041807Y94250D01*
X2041703Y93996D01*
X2041592Y93744D01*
X2041476Y93495D01*
X2041353Y93249D01*
X2041224Y93006D01*
X2041090Y92767D01*
X2040949Y92530D01*
X2040803Y92297D01*
X2040651Y92068D01*
X2040494Y91842D01*
X2040332Y91621D01*
X2040164Y91403D01*
X2039990Y91190D01*
X2039812Y90981D01*
X2039628Y90776D01*
X2039440Y90576D01*
X2039247Y90380D01*
X2039049Y90189D01*
X2038846Y90003D01*
X2038639Y89822D01*
X2038428Y89646D01*
X2038213Y89476D01*
X2037993Y89310D01*
X2037769Y89150D01*
X2037542Y88996D01*
X2037311Y88847D01*
X2037076Y88704D01*
X2036838Y88566D01*
X2036597Y88435D01*
X2036352Y88309D01*
X2036105Y88189D01*
X2035854Y88076D01*
X2035601Y87968D01*
X2035346Y87867D01*
X2035088Y87772D01*
X2034828Y87683D01*
X2034565Y87601D01*
X2034301Y87525D01*
X2034035Y87455D01*
X2033768Y87392D01*
X2033499Y87336D01*
X2033228Y87286D01*
X2032957Y87242D01*
X2032684Y87206D01*
X2032411Y87176D01*
X2032137Y87152D01*
X2031863Y87135D01*
X2031588Y87125D01*
X2031313Y87122D01*
X2020024Y87122D01*
X2020024Y127762D01*
X2031313Y127762D01*
X2031533Y127759D01*
X2031753Y127751D01*
X2031972Y127738D01*
X2032191Y127719D01*
X2032410Y127695D01*
X2032628Y127666D01*
X2032845Y127631D01*
X2033061Y127591D01*
X2033277Y127546D01*
X2033491Y127496D01*
X2033703Y127440D01*
X2033915Y127379D01*
X2034125Y127313D01*
X2034333Y127242D01*
X2034539Y127166D01*
X2034744Y127085D01*
X2034946Y126999D01*
X2035146Y126908D01*
X2035344Y126812D01*
X2035540Y126712D01*
X2035733Y126606D01*
X2035923Y126497D01*
X2036111Y126382D01*
X2036296Y126263D01*
X2036478Y126139D01*
X2036657Y126011D01*
X2036833Y125879D01*
X2037005Y125742D01*
X2037174Y125602D01*
X2037340Y125457D01*
X2037502Y125308D01*
X2037660Y125156D01*
X2037814Y124999D01*
X2037965Y124839D01*
X2038112Y124675D01*
X2038255Y124508D01*
X2038393Y124337D01*
X2038528Y124163D01*
X2038658Y123986D01*
X2038784Y123805D01*
X2038905Y123622D01*
X2039022Y123436D01*
X2039134Y123247D01*
X2039242Y123055D01*
X2039345Y122860D01*
X2039443Y122664D01*
X2039536Y122464D01*
X2039625Y122263D01*
X2039708Y122060D01*
X2039787Y121854D01*
X2039860Y121647D01*
X2039929Y121438D01*
X2039992Y121227D01*
X2040050Y121015D01*
X2040103Y120802D01*
X2040151Y120587D01*
X2040194Y120371D01*
X2040231Y120155D01*
X2040263Y119937D01*
X2040290Y119719D01*
X2040311Y119500D01*
X2040327Y119280D01*
X2040338Y119061D01*
X2040343Y118841D01*
X2040343Y118621D01*
X2040338Y118401D01*
X2040327Y118182D01*
X2040311Y117962D01*
X2040290Y117743D01*
X2040263Y117525D01*
X2040231Y117307D01*
X2040194Y117091D01*
X2040151Y116875D01*
X2040103Y116660D01*
X2040050Y116447D01*
X2039992Y116235D01*
X2039929Y116024D01*
X2039860Y115815D01*
X2039787Y115608D01*
X2039708Y115402D01*
X2039625Y115199D01*
X2039536Y114998D01*
X2039443Y114798D01*
X2039345Y114602D01*
X2039242Y114407D01*
X2039134Y114216D01*
X2039022Y114026D01*
X2038905Y113840D01*
X2038784Y113657D01*
X2038658Y113476D01*
X2038528Y113299D01*
X2038393Y113125D01*
X2038255Y112954D01*
X2038112Y112787D01*
X2037965Y112623D01*
X2037814Y112463D01*
X2037660Y112306D01*
X2037502Y112154D01*
X2037340Y112005D01*
X2037174Y111860D01*
X2037005Y111720D01*
X2036833Y111583D01*
X2036657Y111451D01*
X2036478Y111323D01*
X2036296Y111199D01*
X2036111Y111080D01*
X2035923Y110965D01*
X2035733Y110856D01*
X2035540Y110750D01*
X2035344Y110650D01*
X2035146Y110554D01*
X2034946Y110463D01*
X2034744Y110377D01*
X2034539Y110296D01*
X2034333Y110220D01*
X2034125Y110149D01*
X2033915Y110083D01*
X2033703Y110022D01*
X2033491Y109966D01*
X2033277Y109916D01*
X2033061Y109871D01*
X2032845Y109831D01*
X2032628Y109796D01*
X2032410Y109767D01*
X2032191Y109743D01*
X2031972Y109724D01*
X2031753Y109711D01*
X2031533Y109703D01*
X2031313Y109700D01*
D14*
X1912874Y147066D02*
X1912874Y64516D01*
X1912874Y147066D02*
X2065274Y147066D01*
X2065274Y64516D01*
X1912874Y64516D01*
D15*
X1733343Y139294D03*
D16*
X1735396Y134254D02*
X1730843Y134254D01*
X1735396Y134254D02*
X1735396Y31354D01*
X1730843Y31354D01*
X1465649Y134254D02*
X1461096Y134254D01*
X1461096Y31354D01*
X1465649Y31354D01*
D15*
X901247Y139294D03*
D16*
X903300Y134254D02*
X898747Y134254D01*
X903300Y134254D02*
X903300Y31354D01*
X898747Y31354D01*
X633553Y134254D02*
X629000Y134254D01*
X629000Y31354D01*
X633553Y31354D01*
D17*
X834141Y136960D02*
X834141Y138597D01*
X834141Y136960D02*
X834139Y136882D01*
X834134Y136804D01*
X834124Y136727D01*
X834111Y136650D01*
X834095Y136574D01*
X834075Y136499D01*
X834051Y136425D01*
X834024Y136352D01*
X833993Y136280D01*
X833959Y136210D01*
X833922Y136142D01*
X833881Y136075D01*
X833837Y136010D01*
X833791Y135948D01*
X833741Y135888D01*
X833689Y135830D01*
X833634Y135775D01*
X833576Y135723D01*
X833516Y135673D01*
X833454Y135627D01*
X833389Y135583D01*
X833323Y135542D01*
X833254Y135505D01*
X833184Y135471D01*
X833112Y135440D01*
X833039Y135413D01*
X832965Y135389D01*
X832890Y135369D01*
X832814Y135353D01*
X832737Y135340D01*
X832660Y135330D01*
X832582Y135325D01*
X832504Y135323D01*
X828412Y135323D01*
X828332Y135325D01*
X828252Y135331D01*
X828172Y135341D01*
X828093Y135354D01*
X828014Y135372D01*
X827937Y135393D01*
X827861Y135419D01*
X827786Y135448D01*
X827712Y135480D01*
X827640Y135516D01*
X827570Y135556D01*
X827503Y135599D01*
X827437Y135645D01*
X827374Y135695D01*
X827313Y135747D01*
X827254Y135802D01*
X827199Y135861D01*
X827147Y135921D01*
X827097Y135985D01*
X827051Y136050D01*
X827008Y136118D01*
X826968Y136188D01*
X826932Y136260D01*
X826900Y136334D01*
X826871Y136408D01*
X826846Y136485D01*
X826824Y136562D01*
X826806Y136641D01*
X826793Y136720D01*
X826783Y136799D01*
X826777Y136880D01*
X826775Y136960D01*
X826775Y138597D01*
X826775Y143693D02*
X826777Y143778D01*
X826783Y143863D01*
X826793Y143947D01*
X826806Y144031D01*
X826824Y144115D01*
X826845Y144197D01*
X826870Y144278D01*
X826899Y144358D01*
X826932Y144437D01*
X826968Y144514D01*
X827008Y144589D01*
X827051Y144663D01*
X827097Y144734D01*
X827147Y144803D01*
X827200Y144870D01*
X827256Y144934D01*
X827315Y144995D01*
X827376Y145054D01*
X827440Y145110D01*
X827507Y145163D01*
X827576Y145213D01*
X827647Y145259D01*
X827721Y145302D01*
X827796Y145342D01*
X827873Y145378D01*
X827952Y145411D01*
X828032Y145440D01*
X828113Y145465D01*
X828195Y145486D01*
X828279Y145504D01*
X828363Y145517D01*
X828447Y145527D01*
X828532Y145533D01*
X828617Y145535D01*
X826775Y143693D02*
X826777Y143597D01*
X826783Y143501D01*
X826793Y143406D01*
X826806Y143311D01*
X826824Y143216D01*
X826845Y143123D01*
X826870Y143030D01*
X826899Y142939D01*
X826931Y142848D01*
X826967Y142759D01*
X827007Y142672D01*
X827050Y142586D01*
X827096Y142502D01*
X827146Y142420D01*
X827200Y142340D01*
X827256Y142263D01*
X827316Y142188D01*
X827378Y142115D01*
X827444Y142045D01*
X827512Y141977D01*
X827583Y141912D01*
X827656Y141851D01*
X827732Y141792D01*
X827811Y141736D01*
X827891Y141684D01*
X827974Y141635D01*
X828058Y141589D01*
X828144Y141547D01*
X828232Y141509D01*
X828321Y141474D01*
X828412Y141442D01*
X830049Y144921D02*
X829990Y144981D01*
X829928Y145038D01*
X829864Y145093D01*
X829797Y145144D01*
X829728Y145193D01*
X829658Y145239D01*
X829585Y145282D01*
X829511Y145322D01*
X829435Y145358D01*
X829357Y145391D01*
X829278Y145421D01*
X829198Y145448D01*
X829117Y145471D01*
X829035Y145490D01*
X828953Y145506D01*
X828869Y145519D01*
X828785Y145528D01*
X828701Y145533D01*
X828617Y145535D01*
X830049Y144921D02*
X834141Y141443D01*
X834141Y145535D01*
X642717Y190614D02*
X642717Y192251D01*
X642717Y190614D02*
X642715Y190536D01*
X642710Y190458D01*
X642700Y190381D01*
X642687Y190304D01*
X642671Y190228D01*
X642651Y190153D01*
X642627Y190079D01*
X642600Y190006D01*
X642569Y189934D01*
X642535Y189864D01*
X642498Y189796D01*
X642457Y189729D01*
X642413Y189664D01*
X642367Y189602D01*
X642317Y189542D01*
X642265Y189484D01*
X642210Y189429D01*
X642152Y189377D01*
X642092Y189327D01*
X642030Y189281D01*
X641965Y189237D01*
X641899Y189196D01*
X641830Y189159D01*
X641760Y189125D01*
X641688Y189094D01*
X641615Y189067D01*
X641541Y189043D01*
X641466Y189023D01*
X641390Y189007D01*
X641313Y188994D01*
X641236Y188984D01*
X641158Y188979D01*
X641080Y188977D01*
X636988Y188977D01*
X636908Y188979D01*
X636828Y188985D01*
X636748Y188995D01*
X636669Y189008D01*
X636590Y189026D01*
X636513Y189047D01*
X636437Y189073D01*
X636362Y189102D01*
X636288Y189134D01*
X636216Y189170D01*
X636146Y189210D01*
X636079Y189253D01*
X636013Y189299D01*
X635950Y189349D01*
X635889Y189401D01*
X635830Y189456D01*
X635775Y189515D01*
X635723Y189575D01*
X635673Y189639D01*
X635627Y189704D01*
X635584Y189772D01*
X635544Y189842D01*
X635508Y189914D01*
X635476Y189988D01*
X635447Y190062D01*
X635422Y190139D01*
X635400Y190216D01*
X635382Y190295D01*
X635369Y190374D01*
X635359Y190453D01*
X635353Y190534D01*
X635351Y190614D01*
X635351Y192251D01*
X642717Y195097D02*
X642717Y197143D01*
X642715Y197232D01*
X642709Y197321D01*
X642699Y197410D01*
X642686Y197498D01*
X642669Y197586D01*
X642647Y197673D01*
X642622Y197758D01*
X642594Y197843D01*
X642561Y197926D01*
X642525Y198008D01*
X642486Y198088D01*
X642443Y198166D01*
X642397Y198242D01*
X642347Y198317D01*
X642294Y198389D01*
X642238Y198458D01*
X642179Y198525D01*
X642118Y198590D01*
X642053Y198651D01*
X641986Y198710D01*
X641917Y198766D01*
X641845Y198819D01*
X641770Y198869D01*
X641694Y198915D01*
X641616Y198958D01*
X641536Y198997D01*
X641454Y199033D01*
X641371Y199066D01*
X641286Y199094D01*
X641201Y199119D01*
X641114Y199141D01*
X641026Y199158D01*
X640938Y199171D01*
X640849Y199181D01*
X640760Y199187D01*
X640671Y199189D01*
X640582Y199187D01*
X640493Y199181D01*
X640404Y199171D01*
X640316Y199158D01*
X640228Y199141D01*
X640141Y199119D01*
X640056Y199094D01*
X639971Y199066D01*
X639888Y199033D01*
X639806Y198997D01*
X639726Y198958D01*
X639648Y198915D01*
X639572Y198869D01*
X639497Y198819D01*
X639425Y198766D01*
X639356Y198710D01*
X639289Y198651D01*
X639224Y198590D01*
X639163Y198525D01*
X639104Y198458D01*
X639048Y198389D01*
X638995Y198317D01*
X638945Y198242D01*
X638899Y198166D01*
X638856Y198088D01*
X638817Y198008D01*
X638781Y197926D01*
X638748Y197843D01*
X638720Y197758D01*
X638695Y197673D01*
X638673Y197586D01*
X638656Y197498D01*
X638643Y197410D01*
X638633Y197321D01*
X638627Y197232D01*
X638625Y197143D01*
X635351Y197552D02*
X635351Y195097D01*
X635351Y197552D02*
X635353Y197631D01*
X635359Y197710D01*
X635368Y197789D01*
X635381Y197867D01*
X635399Y197944D01*
X635419Y198020D01*
X635444Y198095D01*
X635472Y198169D01*
X635503Y198242D01*
X635539Y198313D01*
X635577Y198382D01*
X635619Y198449D01*
X635664Y198514D01*
X635712Y198577D01*
X635763Y198638D01*
X635817Y198695D01*
X635873Y198751D01*
X635932Y198803D01*
X635994Y198853D01*
X636058Y198899D01*
X636124Y198943D01*
X636192Y198983D01*
X636262Y199019D01*
X636334Y199053D01*
X636408Y199083D01*
X636482Y199109D01*
X636558Y199132D01*
X636635Y199150D01*
X636712Y199166D01*
X636791Y199177D01*
X636869Y199185D01*
X636948Y199189D01*
X637028Y199189D01*
X637107Y199185D01*
X637185Y199177D01*
X637264Y199166D01*
X637341Y199150D01*
X637418Y199132D01*
X637494Y199109D01*
X637568Y199083D01*
X637642Y199053D01*
X637714Y199019D01*
X637784Y198983D01*
X637852Y198943D01*
X637918Y198899D01*
X637982Y198853D01*
X638044Y198803D01*
X638103Y198751D01*
X638159Y198695D01*
X638213Y198638D01*
X638264Y198577D01*
X638312Y198514D01*
X638357Y198449D01*
X638399Y198382D01*
X638437Y198313D01*
X638473Y198242D01*
X638504Y198169D01*
X638532Y198095D01*
X638557Y198020D01*
X638577Y197944D01*
X638595Y197867D01*
X638608Y197789D01*
X638617Y197710D01*
X638623Y197631D01*
X638625Y197552D01*
X638625Y195915D01*
X1730629Y140036D02*
X1730629Y138399D01*
X1730627Y138321D01*
X1730622Y138243D01*
X1730612Y138166D01*
X1730599Y138089D01*
X1730583Y138013D01*
X1730563Y137938D01*
X1730539Y137864D01*
X1730512Y137791D01*
X1730481Y137719D01*
X1730447Y137649D01*
X1730410Y137581D01*
X1730369Y137514D01*
X1730325Y137449D01*
X1730279Y137387D01*
X1730229Y137327D01*
X1730177Y137269D01*
X1730122Y137214D01*
X1730064Y137162D01*
X1730004Y137112D01*
X1729942Y137066D01*
X1729877Y137022D01*
X1729811Y136981D01*
X1729742Y136944D01*
X1729672Y136910D01*
X1729600Y136879D01*
X1729527Y136852D01*
X1729453Y136828D01*
X1729378Y136808D01*
X1729302Y136792D01*
X1729225Y136779D01*
X1729148Y136769D01*
X1729070Y136764D01*
X1728992Y136762D01*
X1724900Y136762D01*
X1724820Y136764D01*
X1724740Y136770D01*
X1724660Y136780D01*
X1724581Y136793D01*
X1724502Y136811D01*
X1724425Y136832D01*
X1724349Y136858D01*
X1724274Y136887D01*
X1724200Y136919D01*
X1724128Y136955D01*
X1724058Y136995D01*
X1723991Y137038D01*
X1723925Y137084D01*
X1723862Y137134D01*
X1723801Y137186D01*
X1723742Y137241D01*
X1723687Y137300D01*
X1723635Y137360D01*
X1723585Y137424D01*
X1723539Y137489D01*
X1723496Y137557D01*
X1723456Y137627D01*
X1723420Y137699D01*
X1723388Y137773D01*
X1723359Y137847D01*
X1723334Y137924D01*
X1723312Y138001D01*
X1723294Y138080D01*
X1723281Y138159D01*
X1723271Y138238D01*
X1723265Y138319D01*
X1723263Y138399D01*
X1723263Y140036D01*
X1723263Y144518D02*
X1728992Y142881D01*
X1728992Y146973D01*
X1727355Y145746D02*
X1730629Y145746D01*
X1665859Y140221D02*
X1665859Y138584D01*
X1665857Y138506D01*
X1665852Y138428D01*
X1665842Y138351D01*
X1665829Y138274D01*
X1665813Y138198D01*
X1665793Y138123D01*
X1665769Y138049D01*
X1665742Y137976D01*
X1665711Y137904D01*
X1665677Y137834D01*
X1665640Y137766D01*
X1665599Y137699D01*
X1665555Y137634D01*
X1665509Y137572D01*
X1665459Y137512D01*
X1665407Y137454D01*
X1665352Y137399D01*
X1665294Y137347D01*
X1665234Y137297D01*
X1665172Y137251D01*
X1665107Y137207D01*
X1665041Y137166D01*
X1664972Y137129D01*
X1664902Y137095D01*
X1664830Y137064D01*
X1664757Y137037D01*
X1664683Y137013D01*
X1664608Y136993D01*
X1664532Y136977D01*
X1664455Y136964D01*
X1664378Y136954D01*
X1664300Y136949D01*
X1664222Y136947D01*
X1660130Y136947D01*
X1660050Y136949D01*
X1659970Y136955D01*
X1659890Y136965D01*
X1659811Y136978D01*
X1659732Y136996D01*
X1659655Y137017D01*
X1659579Y137043D01*
X1659504Y137072D01*
X1659430Y137104D01*
X1659358Y137140D01*
X1659288Y137180D01*
X1659221Y137223D01*
X1659155Y137269D01*
X1659092Y137319D01*
X1659031Y137371D01*
X1658972Y137426D01*
X1658917Y137485D01*
X1658865Y137545D01*
X1658815Y137609D01*
X1658769Y137674D01*
X1658726Y137742D01*
X1658686Y137812D01*
X1658650Y137884D01*
X1658618Y137958D01*
X1658589Y138032D01*
X1658564Y138109D01*
X1658542Y138186D01*
X1658524Y138265D01*
X1658511Y138344D01*
X1658501Y138423D01*
X1658495Y138504D01*
X1658493Y138584D01*
X1658493Y140221D01*
X1665859Y143067D02*
X1665859Y145522D01*
X1665857Y145600D01*
X1665852Y145678D01*
X1665842Y145755D01*
X1665829Y145832D01*
X1665813Y145908D01*
X1665793Y145983D01*
X1665769Y146057D01*
X1665742Y146130D01*
X1665711Y146202D01*
X1665677Y146272D01*
X1665640Y146341D01*
X1665599Y146407D01*
X1665555Y146472D01*
X1665509Y146534D01*
X1665459Y146594D01*
X1665407Y146652D01*
X1665352Y146707D01*
X1665294Y146759D01*
X1665234Y146809D01*
X1665172Y146855D01*
X1665107Y146899D01*
X1665041Y146940D01*
X1664972Y146977D01*
X1664902Y147011D01*
X1664830Y147042D01*
X1664757Y147069D01*
X1664683Y147093D01*
X1664608Y147113D01*
X1664532Y147129D01*
X1664455Y147142D01*
X1664378Y147152D01*
X1664300Y147157D01*
X1664222Y147159D01*
X1663404Y147159D01*
X1663324Y147157D01*
X1663244Y147151D01*
X1663164Y147141D01*
X1663085Y147128D01*
X1663006Y147110D01*
X1662929Y147089D01*
X1662853Y147063D01*
X1662778Y147034D01*
X1662704Y147002D01*
X1662632Y146966D01*
X1662562Y146926D01*
X1662495Y146883D01*
X1662429Y146837D01*
X1662366Y146787D01*
X1662305Y146735D01*
X1662246Y146680D01*
X1662191Y146621D01*
X1662139Y146561D01*
X1662089Y146497D01*
X1662043Y146431D01*
X1662000Y146364D01*
X1661960Y146294D01*
X1661924Y146222D01*
X1661892Y146148D01*
X1661863Y146074D01*
X1661837Y145997D01*
X1661816Y145920D01*
X1661798Y145841D01*
X1661785Y145762D01*
X1661775Y145682D01*
X1661769Y145602D01*
X1661767Y145522D01*
X1661767Y143067D01*
X1658493Y143067D01*
X1658493Y147159D01*
X1474038Y191062D02*
X1474038Y192698D01*
X1474038Y191062D02*
X1474036Y190984D01*
X1474031Y190906D01*
X1474021Y190829D01*
X1474008Y190752D01*
X1473992Y190676D01*
X1473972Y190601D01*
X1473948Y190527D01*
X1473921Y190454D01*
X1473890Y190382D01*
X1473856Y190312D01*
X1473819Y190244D01*
X1473778Y190177D01*
X1473734Y190112D01*
X1473688Y190050D01*
X1473638Y189990D01*
X1473586Y189932D01*
X1473531Y189877D01*
X1473473Y189825D01*
X1473413Y189775D01*
X1473351Y189729D01*
X1473286Y189685D01*
X1473220Y189644D01*
X1473151Y189607D01*
X1473081Y189573D01*
X1473009Y189542D01*
X1472936Y189515D01*
X1472862Y189491D01*
X1472787Y189471D01*
X1472711Y189455D01*
X1472634Y189442D01*
X1472557Y189432D01*
X1472479Y189427D01*
X1472401Y189425D01*
X1468309Y189425D01*
X1468229Y189427D01*
X1468149Y189433D01*
X1468069Y189443D01*
X1467990Y189456D01*
X1467911Y189474D01*
X1467834Y189495D01*
X1467758Y189521D01*
X1467683Y189550D01*
X1467609Y189582D01*
X1467537Y189618D01*
X1467467Y189658D01*
X1467400Y189701D01*
X1467334Y189747D01*
X1467271Y189797D01*
X1467210Y189849D01*
X1467151Y189904D01*
X1467096Y189963D01*
X1467044Y190023D01*
X1466994Y190087D01*
X1466948Y190152D01*
X1466905Y190220D01*
X1466865Y190290D01*
X1466829Y190362D01*
X1466797Y190436D01*
X1466768Y190510D01*
X1466743Y190587D01*
X1466721Y190664D01*
X1466703Y190743D01*
X1466690Y190822D01*
X1466680Y190901D01*
X1466674Y190982D01*
X1466672Y191062D01*
X1466672Y192698D01*
X1469946Y195544D02*
X1469946Y197999D01*
X1469948Y198077D01*
X1469953Y198155D01*
X1469963Y198232D01*
X1469976Y198309D01*
X1469992Y198385D01*
X1470012Y198460D01*
X1470036Y198534D01*
X1470063Y198607D01*
X1470094Y198679D01*
X1470128Y198749D01*
X1470165Y198818D01*
X1470206Y198884D01*
X1470250Y198949D01*
X1470296Y199011D01*
X1470346Y199071D01*
X1470398Y199129D01*
X1470453Y199184D01*
X1470511Y199236D01*
X1470571Y199286D01*
X1470633Y199332D01*
X1470698Y199376D01*
X1470765Y199417D01*
X1470833Y199454D01*
X1470903Y199488D01*
X1470975Y199519D01*
X1471048Y199546D01*
X1471122Y199570D01*
X1471197Y199590D01*
X1471273Y199606D01*
X1471350Y199619D01*
X1471427Y199629D01*
X1471505Y199634D01*
X1471583Y199636D01*
X1471992Y199636D01*
X1472081Y199634D01*
X1472170Y199628D01*
X1472259Y199618D01*
X1472347Y199605D01*
X1472435Y199588D01*
X1472522Y199566D01*
X1472607Y199541D01*
X1472692Y199513D01*
X1472775Y199480D01*
X1472857Y199444D01*
X1472937Y199405D01*
X1473015Y199362D01*
X1473091Y199316D01*
X1473166Y199266D01*
X1473238Y199213D01*
X1473307Y199157D01*
X1473374Y199098D01*
X1473439Y199037D01*
X1473500Y198972D01*
X1473559Y198905D01*
X1473615Y198836D01*
X1473668Y198764D01*
X1473718Y198689D01*
X1473764Y198613D01*
X1473807Y198535D01*
X1473846Y198455D01*
X1473882Y198373D01*
X1473915Y198290D01*
X1473943Y198205D01*
X1473968Y198120D01*
X1473990Y198033D01*
X1474007Y197945D01*
X1474020Y197857D01*
X1474030Y197768D01*
X1474036Y197679D01*
X1474038Y197590D01*
X1474036Y197501D01*
X1474030Y197412D01*
X1474020Y197323D01*
X1474007Y197235D01*
X1473990Y197147D01*
X1473968Y197060D01*
X1473943Y196975D01*
X1473915Y196890D01*
X1473882Y196807D01*
X1473846Y196725D01*
X1473807Y196645D01*
X1473764Y196567D01*
X1473718Y196491D01*
X1473668Y196416D01*
X1473615Y196344D01*
X1473559Y196275D01*
X1473500Y196208D01*
X1473439Y196143D01*
X1473374Y196082D01*
X1473307Y196023D01*
X1473238Y195967D01*
X1473166Y195914D01*
X1473091Y195864D01*
X1473015Y195818D01*
X1472937Y195775D01*
X1472857Y195736D01*
X1472775Y195700D01*
X1472692Y195667D01*
X1472607Y195639D01*
X1472522Y195614D01*
X1472435Y195592D01*
X1472347Y195575D01*
X1472259Y195562D01*
X1472170Y195552D01*
X1472081Y195546D01*
X1471992Y195544D01*
X1469946Y195544D01*
X1469832Y195546D01*
X1469718Y195552D01*
X1469604Y195562D01*
X1469490Y195576D01*
X1469377Y195594D01*
X1469265Y195616D01*
X1469154Y195641D01*
X1469044Y195671D01*
X1468934Y195704D01*
X1468826Y195741D01*
X1468720Y195782D01*
X1468614Y195827D01*
X1468511Y195875D01*
X1468409Y195927D01*
X1468309Y195983D01*
X1468211Y196041D01*
X1468115Y196104D01*
X1468022Y196169D01*
X1467930Y196238D01*
X1467842Y196310D01*
X1467755Y196385D01*
X1467672Y196463D01*
X1467591Y196544D01*
X1467513Y196627D01*
X1467438Y196713D01*
X1467366Y196802D01*
X1467297Y196894D01*
X1467232Y196987D01*
X1467170Y197083D01*
X1467111Y197181D01*
X1467055Y197281D01*
X1467003Y197383D01*
X1466955Y197486D01*
X1466910Y197591D01*
X1466869Y197698D01*
X1466832Y197806D01*
X1466799Y197916D01*
X1466769Y198026D01*
X1466744Y198137D01*
X1466722Y198249D01*
X1466704Y198362D01*
X1466690Y198476D01*
X1466680Y198590D01*
X1466674Y198704D01*
X1466672Y198818D01*
D18*
X279661Y51508D02*
X266961Y51508D01*
X279661Y51508D02*
X286011Y45158D01*
X286011Y32458D02*
X279661Y26108D01*
X241561Y51508D02*
X235211Y45158D01*
X241561Y51508D02*
X254261Y51508D01*
X260611Y45158D01*
X260611Y32458D02*
X254261Y26108D01*
X241561Y26108D01*
X235211Y32458D01*
X260611Y45158D02*
X266961Y51508D01*
X260611Y32458D02*
X266961Y26108D01*
X279661Y26108D01*
X203461Y51508D02*
X190761Y51508D01*
X203461Y51508D02*
X209811Y45158D01*
X209811Y32458D02*
X203461Y26108D01*
X209811Y45158D02*
X216161Y51508D01*
X228861Y51508D01*
X235211Y45158D01*
X235211Y32458D02*
X228861Y26108D01*
X216161Y26108D01*
X209811Y32458D01*
X184411Y32458D02*
X184411Y45158D01*
X190761Y51508D01*
X184411Y32458D02*
X190761Y26108D01*
X203461Y26108D01*
X286011Y32458D02*
X286011Y45158D01*
D11*
X99526Y27079D02*
X99526Y230279D01*
X41106Y230279D02*
X41106Y27079D01*
X99526Y27079D01*
X99526Y230279D02*
X80476Y230279D01*
X60156Y230279D02*
X41106Y230279D01*
X60156Y230279D02*
X60159Y230032D01*
X60168Y229784D01*
X60183Y229537D01*
X60204Y229291D01*
X60231Y229045D01*
X60264Y228800D01*
X60303Y228555D01*
X60348Y228312D01*
X60399Y228070D01*
X60456Y227829D01*
X60518Y227590D01*
X60587Y227352D01*
X60661Y227116D01*
X60741Y226882D01*
X60826Y226650D01*
X60918Y226420D01*
X61014Y226192D01*
X61117Y225967D01*
X61224Y225744D01*
X61338Y225524D01*
X61456Y225307D01*
X61580Y225092D01*
X61709Y224881D01*
X61843Y224673D01*
X61982Y224468D01*
X62126Y224267D01*
X62274Y224069D01*
X62428Y223875D01*
X62586Y223685D01*
X62749Y223499D01*
X62916Y223317D01*
X63088Y223139D01*
X63264Y222965D01*
X63444Y222795D01*
X63629Y222630D01*
X63817Y222470D01*
X64009Y222314D01*
X64205Y222162D01*
X64404Y222016D01*
X64607Y221874D01*
X64814Y221738D01*
X65023Y221606D01*
X65236Y221480D01*
X65452Y221359D01*
X65670Y221243D01*
X65892Y221133D01*
X66116Y221028D01*
X66342Y220928D01*
X66571Y220834D01*
X66802Y220746D01*
X67036Y220663D01*
X67271Y220586D01*
X67508Y220515D01*
X67746Y220449D01*
X67986Y220390D01*
X68228Y220336D01*
X68471Y220288D01*
X68714Y220246D01*
X68959Y220210D01*
X69205Y220180D01*
X69451Y220156D01*
X69698Y220138D01*
X69945Y220126D01*
X70192Y220120D01*
X70440Y220120D01*
X70687Y220126D01*
X70934Y220138D01*
X71181Y220156D01*
X71427Y220180D01*
X71673Y220210D01*
X71918Y220246D01*
X72161Y220288D01*
X72404Y220336D01*
X72646Y220390D01*
X72886Y220449D01*
X73124Y220515D01*
X73361Y220586D01*
X73596Y220663D01*
X73830Y220746D01*
X74061Y220834D01*
X74290Y220928D01*
X74516Y221028D01*
X74740Y221133D01*
X74962Y221243D01*
X75180Y221359D01*
X75396Y221480D01*
X75609Y221606D01*
X75818Y221738D01*
X76025Y221874D01*
X76228Y222016D01*
X76427Y222162D01*
X76623Y222314D01*
X76815Y222470D01*
X77003Y222630D01*
X77188Y222795D01*
X77368Y222965D01*
X77544Y223139D01*
X77716Y223317D01*
X77883Y223499D01*
X78046Y223685D01*
X78204Y223875D01*
X78358Y224069D01*
X78506Y224267D01*
X78650Y224468D01*
X78789Y224673D01*
X78923Y224881D01*
X79052Y225092D01*
X79176Y225307D01*
X79294Y225524D01*
X79408Y225744D01*
X79515Y225967D01*
X79618Y226192D01*
X79714Y226420D01*
X79806Y226650D01*
X79891Y226882D01*
X79971Y227116D01*
X80045Y227352D01*
X80114Y227590D01*
X80176Y227829D01*
X80233Y228070D01*
X80284Y228312D01*
X80329Y228555D01*
X80368Y228800D01*
X80401Y229045D01*
X80428Y229291D01*
X80449Y229537D01*
X80464Y229784D01*
X80473Y230032D01*
X80476Y230279D01*
X244034Y230279D02*
X244034Y179479D01*
X185614Y179479D02*
X185614Y230279D01*
X185614Y179479D02*
X244034Y179479D01*
X244034Y230279D02*
X224984Y230279D01*
X204664Y230279D02*
X185614Y230279D01*
X204664Y230279D02*
X204667Y230032D01*
X204676Y229784D01*
X204691Y229537D01*
X204712Y229291D01*
X204739Y229045D01*
X204772Y228800D01*
X204811Y228555D01*
X204856Y228312D01*
X204907Y228070D01*
X204964Y227829D01*
X205026Y227590D01*
X205095Y227352D01*
X205169Y227116D01*
X205249Y226882D01*
X205334Y226650D01*
X205426Y226420D01*
X205522Y226192D01*
X205625Y225967D01*
X205732Y225744D01*
X205846Y225524D01*
X205964Y225307D01*
X206088Y225092D01*
X206217Y224881D01*
X206351Y224673D01*
X206490Y224468D01*
X206634Y224267D01*
X206782Y224069D01*
X206936Y223875D01*
X207094Y223685D01*
X207257Y223499D01*
X207424Y223317D01*
X207596Y223139D01*
X207772Y222965D01*
X207952Y222795D01*
X208137Y222630D01*
X208325Y222470D01*
X208517Y222314D01*
X208713Y222162D01*
X208912Y222016D01*
X209115Y221874D01*
X209322Y221738D01*
X209531Y221606D01*
X209744Y221480D01*
X209960Y221359D01*
X210178Y221243D01*
X210400Y221133D01*
X210624Y221028D01*
X210850Y220928D01*
X211079Y220834D01*
X211310Y220746D01*
X211544Y220663D01*
X211779Y220586D01*
X212016Y220515D01*
X212254Y220449D01*
X212494Y220390D01*
X212736Y220336D01*
X212979Y220288D01*
X213222Y220246D01*
X213467Y220210D01*
X213713Y220180D01*
X213959Y220156D01*
X214206Y220138D01*
X214453Y220126D01*
X214700Y220120D01*
X214948Y220120D01*
X215195Y220126D01*
X215442Y220138D01*
X215689Y220156D01*
X215935Y220180D01*
X216181Y220210D01*
X216426Y220246D01*
X216669Y220288D01*
X216912Y220336D01*
X217154Y220390D01*
X217394Y220449D01*
X217632Y220515D01*
X217869Y220586D01*
X218104Y220663D01*
X218338Y220746D01*
X218569Y220834D01*
X218798Y220928D01*
X219024Y221028D01*
X219248Y221133D01*
X219470Y221243D01*
X219688Y221359D01*
X219904Y221480D01*
X220117Y221606D01*
X220326Y221738D01*
X220533Y221874D01*
X220736Y222016D01*
X220935Y222162D01*
X221131Y222314D01*
X221323Y222470D01*
X221511Y222630D01*
X221696Y222795D01*
X221876Y222965D01*
X222052Y223139D01*
X222224Y223317D01*
X222391Y223499D01*
X222554Y223685D01*
X222712Y223875D01*
X222866Y224069D01*
X223014Y224267D01*
X223158Y224468D01*
X223297Y224673D01*
X223431Y224881D01*
X223560Y225092D01*
X223684Y225307D01*
X223802Y225524D01*
X223916Y225744D01*
X224023Y225967D01*
X224126Y226192D01*
X224222Y226420D01*
X224314Y226650D01*
X224399Y226882D01*
X224479Y227116D01*
X224553Y227352D01*
X224622Y227590D01*
X224684Y227829D01*
X224741Y228070D01*
X224792Y228312D01*
X224837Y228555D01*
X224876Y228800D01*
X224909Y229045D01*
X224936Y229291D01*
X224957Y229537D01*
X224972Y229784D01*
X224981Y230032D01*
X224984Y230279D01*
X378634Y230279D02*
X378634Y179479D01*
X320214Y179479D02*
X320214Y230279D01*
X320214Y179479D02*
X378634Y179479D01*
X378634Y230279D02*
X359584Y230279D01*
X339264Y230279D02*
X320214Y230279D01*
X339264Y230279D02*
X339267Y230032D01*
X339276Y229784D01*
X339291Y229537D01*
X339312Y229291D01*
X339339Y229045D01*
X339372Y228800D01*
X339411Y228555D01*
X339456Y228312D01*
X339507Y228070D01*
X339564Y227829D01*
X339626Y227590D01*
X339695Y227352D01*
X339769Y227116D01*
X339849Y226882D01*
X339934Y226650D01*
X340026Y226420D01*
X340122Y226192D01*
X340225Y225967D01*
X340332Y225744D01*
X340446Y225524D01*
X340564Y225307D01*
X340688Y225092D01*
X340817Y224881D01*
X340951Y224673D01*
X341090Y224468D01*
X341234Y224267D01*
X341382Y224069D01*
X341536Y223875D01*
X341694Y223685D01*
X341857Y223499D01*
X342024Y223317D01*
X342196Y223139D01*
X342372Y222965D01*
X342552Y222795D01*
X342737Y222630D01*
X342925Y222470D01*
X343117Y222314D01*
X343313Y222162D01*
X343512Y222016D01*
X343715Y221874D01*
X343922Y221738D01*
X344131Y221606D01*
X344344Y221480D01*
X344560Y221359D01*
X344778Y221243D01*
X345000Y221133D01*
X345224Y221028D01*
X345450Y220928D01*
X345679Y220834D01*
X345910Y220746D01*
X346144Y220663D01*
X346379Y220586D01*
X346616Y220515D01*
X346854Y220449D01*
X347094Y220390D01*
X347336Y220336D01*
X347579Y220288D01*
X347822Y220246D01*
X348067Y220210D01*
X348313Y220180D01*
X348559Y220156D01*
X348806Y220138D01*
X349053Y220126D01*
X349300Y220120D01*
X349548Y220120D01*
X349795Y220126D01*
X350042Y220138D01*
X350289Y220156D01*
X350535Y220180D01*
X350781Y220210D01*
X351026Y220246D01*
X351269Y220288D01*
X351512Y220336D01*
X351754Y220390D01*
X351994Y220449D01*
X352232Y220515D01*
X352469Y220586D01*
X352704Y220663D01*
X352938Y220746D01*
X353169Y220834D01*
X353398Y220928D01*
X353624Y221028D01*
X353848Y221133D01*
X354070Y221243D01*
X354288Y221359D01*
X354504Y221480D01*
X354717Y221606D01*
X354926Y221738D01*
X355133Y221874D01*
X355336Y222016D01*
X355535Y222162D01*
X355731Y222314D01*
X355923Y222470D01*
X356111Y222630D01*
X356296Y222795D01*
X356476Y222965D01*
X356652Y223139D01*
X356824Y223317D01*
X356991Y223499D01*
X357154Y223685D01*
X357312Y223875D01*
X357466Y224069D01*
X357614Y224267D01*
X357758Y224468D01*
X357897Y224673D01*
X358031Y224881D01*
X358160Y225092D01*
X358284Y225307D01*
X358402Y225524D01*
X358516Y225744D01*
X358623Y225967D01*
X358726Y226192D01*
X358822Y226420D01*
X358914Y226650D01*
X358999Y226882D01*
X359079Y227116D01*
X359153Y227352D01*
X359222Y227590D01*
X359284Y227829D01*
X359341Y228070D01*
X359392Y228312D01*
X359437Y228555D01*
X359476Y228800D01*
X359509Y229045D01*
X359536Y229291D01*
X359557Y229537D01*
X359572Y229784D01*
X359581Y230032D01*
X359584Y230279D01*
X518184Y230279D02*
X518184Y179479D01*
X459764Y179479D02*
X459764Y230279D01*
X459764Y179479D02*
X518184Y179479D01*
X518184Y230279D02*
X499134Y230279D01*
X478814Y230279D02*
X459764Y230279D01*
X478814Y230279D02*
X478817Y230032D01*
X478826Y229784D01*
X478841Y229537D01*
X478862Y229291D01*
X478889Y229045D01*
X478922Y228800D01*
X478961Y228555D01*
X479006Y228312D01*
X479057Y228070D01*
X479114Y227829D01*
X479176Y227590D01*
X479245Y227352D01*
X479319Y227116D01*
X479399Y226882D01*
X479484Y226650D01*
X479576Y226420D01*
X479672Y226192D01*
X479775Y225967D01*
X479882Y225744D01*
X479996Y225524D01*
X480114Y225307D01*
X480238Y225092D01*
X480367Y224881D01*
X480501Y224673D01*
X480640Y224468D01*
X480784Y224267D01*
X480932Y224069D01*
X481086Y223875D01*
X481244Y223685D01*
X481407Y223499D01*
X481574Y223317D01*
X481746Y223139D01*
X481922Y222965D01*
X482102Y222795D01*
X482287Y222630D01*
X482475Y222470D01*
X482667Y222314D01*
X482863Y222162D01*
X483062Y222016D01*
X483265Y221874D01*
X483472Y221738D01*
X483681Y221606D01*
X483894Y221480D01*
X484110Y221359D01*
X484328Y221243D01*
X484550Y221133D01*
X484774Y221028D01*
X485000Y220928D01*
X485229Y220834D01*
X485460Y220746D01*
X485694Y220663D01*
X485929Y220586D01*
X486166Y220515D01*
X486404Y220449D01*
X486644Y220390D01*
X486886Y220336D01*
X487129Y220288D01*
X487372Y220246D01*
X487617Y220210D01*
X487863Y220180D01*
X488109Y220156D01*
X488356Y220138D01*
X488603Y220126D01*
X488850Y220120D01*
X489098Y220120D01*
X489345Y220126D01*
X489592Y220138D01*
X489839Y220156D01*
X490085Y220180D01*
X490331Y220210D01*
X490576Y220246D01*
X490819Y220288D01*
X491062Y220336D01*
X491304Y220390D01*
X491544Y220449D01*
X491782Y220515D01*
X492019Y220586D01*
X492254Y220663D01*
X492488Y220746D01*
X492719Y220834D01*
X492948Y220928D01*
X493174Y221028D01*
X493398Y221133D01*
X493620Y221243D01*
X493838Y221359D01*
X494054Y221480D01*
X494267Y221606D01*
X494476Y221738D01*
X494683Y221874D01*
X494886Y222016D01*
X495085Y222162D01*
X495281Y222314D01*
X495473Y222470D01*
X495661Y222630D01*
X495846Y222795D01*
X496026Y222965D01*
X496202Y223139D01*
X496374Y223317D01*
X496541Y223499D01*
X496704Y223685D01*
X496862Y223875D01*
X497016Y224069D01*
X497164Y224267D01*
X497308Y224468D01*
X497447Y224673D01*
X497581Y224881D01*
X497710Y225092D01*
X497834Y225307D01*
X497952Y225524D01*
X498066Y225744D01*
X498173Y225967D01*
X498276Y226192D01*
X498372Y226420D01*
X498464Y226650D01*
X498549Y226882D01*
X498629Y227116D01*
X498703Y227352D01*
X498772Y227590D01*
X498834Y227829D01*
X498891Y228070D01*
X498942Y228312D01*
X498987Y228555D01*
X499026Y228800D01*
X499059Y229045D01*
X499086Y229291D01*
X499107Y229537D01*
X499122Y229784D01*
X499131Y230032D01*
X499134Y230279D01*
X657734Y230279D02*
X657734Y179479D01*
X599314Y179479D02*
X599314Y230279D01*
X599314Y179479D02*
X657734Y179479D01*
X657734Y230279D02*
X638684Y230279D01*
X618364Y230279D02*
X599314Y230279D01*
X618364Y230279D02*
X618367Y230032D01*
X618376Y229784D01*
X618391Y229537D01*
X618412Y229291D01*
X618439Y229045D01*
X618472Y228800D01*
X618511Y228555D01*
X618556Y228312D01*
X618607Y228070D01*
X618664Y227829D01*
X618726Y227590D01*
X618795Y227352D01*
X618869Y227116D01*
X618949Y226882D01*
X619034Y226650D01*
X619126Y226420D01*
X619222Y226192D01*
X619325Y225967D01*
X619432Y225744D01*
X619546Y225524D01*
X619664Y225307D01*
X619788Y225092D01*
X619917Y224881D01*
X620051Y224673D01*
X620190Y224468D01*
X620334Y224267D01*
X620482Y224069D01*
X620636Y223875D01*
X620794Y223685D01*
X620957Y223499D01*
X621124Y223317D01*
X621296Y223139D01*
X621472Y222965D01*
X621652Y222795D01*
X621837Y222630D01*
X622025Y222470D01*
X622217Y222314D01*
X622413Y222162D01*
X622612Y222016D01*
X622815Y221874D01*
X623022Y221738D01*
X623231Y221606D01*
X623444Y221480D01*
X623660Y221359D01*
X623878Y221243D01*
X624100Y221133D01*
X624324Y221028D01*
X624550Y220928D01*
X624779Y220834D01*
X625010Y220746D01*
X625244Y220663D01*
X625479Y220586D01*
X625716Y220515D01*
X625954Y220449D01*
X626194Y220390D01*
X626436Y220336D01*
X626679Y220288D01*
X626922Y220246D01*
X627167Y220210D01*
X627413Y220180D01*
X627659Y220156D01*
X627906Y220138D01*
X628153Y220126D01*
X628400Y220120D01*
X628648Y220120D01*
X628895Y220126D01*
X629142Y220138D01*
X629389Y220156D01*
X629635Y220180D01*
X629881Y220210D01*
X630126Y220246D01*
X630369Y220288D01*
X630612Y220336D01*
X630854Y220390D01*
X631094Y220449D01*
X631332Y220515D01*
X631569Y220586D01*
X631804Y220663D01*
X632038Y220746D01*
X632269Y220834D01*
X632498Y220928D01*
X632724Y221028D01*
X632948Y221133D01*
X633170Y221243D01*
X633388Y221359D01*
X633604Y221480D01*
X633817Y221606D01*
X634026Y221738D01*
X634233Y221874D01*
X634436Y222016D01*
X634635Y222162D01*
X634831Y222314D01*
X635023Y222470D01*
X635211Y222630D01*
X635396Y222795D01*
X635576Y222965D01*
X635752Y223139D01*
X635924Y223317D01*
X636091Y223499D01*
X636254Y223685D01*
X636412Y223875D01*
X636566Y224069D01*
X636714Y224267D01*
X636858Y224468D01*
X636997Y224673D01*
X637131Y224881D01*
X637260Y225092D01*
X637384Y225307D01*
X637502Y225524D01*
X637616Y225744D01*
X637723Y225967D01*
X637826Y226192D01*
X637922Y226420D01*
X638014Y226650D01*
X638099Y226882D01*
X638179Y227116D01*
X638253Y227352D01*
X638322Y227590D01*
X638384Y227829D01*
X638441Y228070D01*
X638492Y228312D01*
X638537Y228555D01*
X638576Y228800D01*
X638609Y229045D01*
X638636Y229291D01*
X638657Y229537D01*
X638672Y229784D01*
X638681Y230032D01*
X638684Y230279D01*
X797284Y230279D02*
X797284Y179479D01*
X738864Y179479D02*
X738864Y230279D01*
X738864Y179479D02*
X797284Y179479D01*
X797284Y230279D02*
X778234Y230279D01*
X757914Y230279D02*
X738864Y230279D01*
X757914Y230279D02*
X757917Y230032D01*
X757926Y229784D01*
X757941Y229537D01*
X757962Y229291D01*
X757989Y229045D01*
X758022Y228800D01*
X758061Y228555D01*
X758106Y228312D01*
X758157Y228070D01*
X758214Y227829D01*
X758276Y227590D01*
X758345Y227352D01*
X758419Y227116D01*
X758499Y226882D01*
X758584Y226650D01*
X758676Y226420D01*
X758772Y226192D01*
X758875Y225967D01*
X758982Y225744D01*
X759096Y225524D01*
X759214Y225307D01*
X759338Y225092D01*
X759467Y224881D01*
X759601Y224673D01*
X759740Y224468D01*
X759884Y224267D01*
X760032Y224069D01*
X760186Y223875D01*
X760344Y223685D01*
X760507Y223499D01*
X760674Y223317D01*
X760846Y223139D01*
X761022Y222965D01*
X761202Y222795D01*
X761387Y222630D01*
X761575Y222470D01*
X761767Y222314D01*
X761963Y222162D01*
X762162Y222016D01*
X762365Y221874D01*
X762572Y221738D01*
X762781Y221606D01*
X762994Y221480D01*
X763210Y221359D01*
X763428Y221243D01*
X763650Y221133D01*
X763874Y221028D01*
X764100Y220928D01*
X764329Y220834D01*
X764560Y220746D01*
X764794Y220663D01*
X765029Y220586D01*
X765266Y220515D01*
X765504Y220449D01*
X765744Y220390D01*
X765986Y220336D01*
X766229Y220288D01*
X766472Y220246D01*
X766717Y220210D01*
X766963Y220180D01*
X767209Y220156D01*
X767456Y220138D01*
X767703Y220126D01*
X767950Y220120D01*
X768198Y220120D01*
X768445Y220126D01*
X768692Y220138D01*
X768939Y220156D01*
X769185Y220180D01*
X769431Y220210D01*
X769676Y220246D01*
X769919Y220288D01*
X770162Y220336D01*
X770404Y220390D01*
X770644Y220449D01*
X770882Y220515D01*
X771119Y220586D01*
X771354Y220663D01*
X771588Y220746D01*
X771819Y220834D01*
X772048Y220928D01*
X772274Y221028D01*
X772498Y221133D01*
X772720Y221243D01*
X772938Y221359D01*
X773154Y221480D01*
X773367Y221606D01*
X773576Y221738D01*
X773783Y221874D01*
X773986Y222016D01*
X774185Y222162D01*
X774381Y222314D01*
X774573Y222470D01*
X774761Y222630D01*
X774946Y222795D01*
X775126Y222965D01*
X775302Y223139D01*
X775474Y223317D01*
X775641Y223499D01*
X775804Y223685D01*
X775962Y223875D01*
X776116Y224069D01*
X776264Y224267D01*
X776408Y224468D01*
X776547Y224673D01*
X776681Y224881D01*
X776810Y225092D01*
X776934Y225307D01*
X777052Y225524D01*
X777166Y225744D01*
X777273Y225967D01*
X777376Y226192D01*
X777472Y226420D01*
X777564Y226650D01*
X777649Y226882D01*
X777729Y227116D01*
X777803Y227352D01*
X777872Y227590D01*
X777934Y227829D01*
X777991Y228070D01*
X778042Y228312D01*
X778087Y228555D01*
X778126Y228800D01*
X778159Y229045D01*
X778186Y229291D01*
X778207Y229537D01*
X778222Y229784D01*
X778231Y230032D01*
X778234Y230279D01*
X1215934Y230279D02*
X1215934Y27079D01*
X1157514Y27079D02*
X1157514Y230279D01*
X1157514Y27079D02*
X1215934Y27079D01*
X1215934Y230279D02*
X1196884Y230279D01*
X1176564Y230279D02*
X1157514Y230279D01*
X1176564Y230279D02*
X1176567Y230032D01*
X1176576Y229784D01*
X1176591Y229537D01*
X1176612Y229291D01*
X1176639Y229045D01*
X1176672Y228800D01*
X1176711Y228555D01*
X1176756Y228312D01*
X1176807Y228070D01*
X1176864Y227829D01*
X1176926Y227590D01*
X1176995Y227352D01*
X1177069Y227116D01*
X1177149Y226882D01*
X1177234Y226650D01*
X1177326Y226420D01*
X1177422Y226192D01*
X1177525Y225967D01*
X1177632Y225744D01*
X1177746Y225524D01*
X1177864Y225307D01*
X1177988Y225092D01*
X1178117Y224881D01*
X1178251Y224673D01*
X1178390Y224468D01*
X1178534Y224267D01*
X1178682Y224069D01*
X1178836Y223875D01*
X1178994Y223685D01*
X1179157Y223499D01*
X1179324Y223317D01*
X1179496Y223139D01*
X1179672Y222965D01*
X1179852Y222795D01*
X1180037Y222630D01*
X1180225Y222470D01*
X1180417Y222314D01*
X1180613Y222162D01*
X1180812Y222016D01*
X1181015Y221874D01*
X1181222Y221738D01*
X1181431Y221606D01*
X1181644Y221480D01*
X1181860Y221359D01*
X1182078Y221243D01*
X1182300Y221133D01*
X1182524Y221028D01*
X1182750Y220928D01*
X1182979Y220834D01*
X1183210Y220746D01*
X1183444Y220663D01*
X1183679Y220586D01*
X1183916Y220515D01*
X1184154Y220449D01*
X1184394Y220390D01*
X1184636Y220336D01*
X1184879Y220288D01*
X1185122Y220246D01*
X1185367Y220210D01*
X1185613Y220180D01*
X1185859Y220156D01*
X1186106Y220138D01*
X1186353Y220126D01*
X1186600Y220120D01*
X1186848Y220120D01*
X1187095Y220126D01*
X1187342Y220138D01*
X1187589Y220156D01*
X1187835Y220180D01*
X1188081Y220210D01*
X1188326Y220246D01*
X1188569Y220288D01*
X1188812Y220336D01*
X1189054Y220390D01*
X1189294Y220449D01*
X1189532Y220515D01*
X1189769Y220586D01*
X1190004Y220663D01*
X1190238Y220746D01*
X1190469Y220834D01*
X1190698Y220928D01*
X1190924Y221028D01*
X1191148Y221133D01*
X1191370Y221243D01*
X1191588Y221359D01*
X1191804Y221480D01*
X1192017Y221606D01*
X1192226Y221738D01*
X1192433Y221874D01*
X1192636Y222016D01*
X1192835Y222162D01*
X1193031Y222314D01*
X1193223Y222470D01*
X1193411Y222630D01*
X1193596Y222795D01*
X1193776Y222965D01*
X1193952Y223139D01*
X1194124Y223317D01*
X1194291Y223499D01*
X1194454Y223685D01*
X1194612Y223875D01*
X1194766Y224069D01*
X1194914Y224267D01*
X1195058Y224468D01*
X1195197Y224673D01*
X1195331Y224881D01*
X1195460Y225092D01*
X1195584Y225307D01*
X1195702Y225524D01*
X1195816Y225744D01*
X1195923Y225967D01*
X1196026Y226192D01*
X1196122Y226420D01*
X1196214Y226650D01*
X1196299Y226882D01*
X1196379Y227116D01*
X1196453Y227352D01*
X1196522Y227590D01*
X1196584Y227829D01*
X1196641Y228070D01*
X1196692Y228312D01*
X1196737Y228555D01*
X1196776Y228800D01*
X1196809Y229045D01*
X1196836Y229291D01*
X1196857Y229537D01*
X1196872Y229784D01*
X1196881Y230032D01*
X1196884Y230279D01*
X1355484Y230279D02*
X1355484Y179479D01*
X1297064Y179479D02*
X1297064Y230279D01*
X1297064Y179479D02*
X1355484Y179479D01*
X1355484Y230279D02*
X1336434Y230279D01*
X1316114Y230279D02*
X1297064Y230279D01*
X1316114Y230279D02*
X1316117Y230032D01*
X1316126Y229784D01*
X1316141Y229537D01*
X1316162Y229291D01*
X1316189Y229045D01*
X1316222Y228800D01*
X1316261Y228555D01*
X1316306Y228312D01*
X1316357Y228070D01*
X1316414Y227829D01*
X1316476Y227590D01*
X1316545Y227352D01*
X1316619Y227116D01*
X1316699Y226882D01*
X1316784Y226650D01*
X1316876Y226420D01*
X1316972Y226192D01*
X1317075Y225967D01*
X1317182Y225744D01*
X1317296Y225524D01*
X1317414Y225307D01*
X1317538Y225092D01*
X1317667Y224881D01*
X1317801Y224673D01*
X1317940Y224468D01*
X1318084Y224267D01*
X1318232Y224069D01*
X1318386Y223875D01*
X1318544Y223685D01*
X1318707Y223499D01*
X1318874Y223317D01*
X1319046Y223139D01*
X1319222Y222965D01*
X1319402Y222795D01*
X1319587Y222630D01*
X1319775Y222470D01*
X1319967Y222314D01*
X1320163Y222162D01*
X1320362Y222016D01*
X1320565Y221874D01*
X1320772Y221738D01*
X1320981Y221606D01*
X1321194Y221480D01*
X1321410Y221359D01*
X1321628Y221243D01*
X1321850Y221133D01*
X1322074Y221028D01*
X1322300Y220928D01*
X1322529Y220834D01*
X1322760Y220746D01*
X1322994Y220663D01*
X1323229Y220586D01*
X1323466Y220515D01*
X1323704Y220449D01*
X1323944Y220390D01*
X1324186Y220336D01*
X1324429Y220288D01*
X1324672Y220246D01*
X1324917Y220210D01*
X1325163Y220180D01*
X1325409Y220156D01*
X1325656Y220138D01*
X1325903Y220126D01*
X1326150Y220120D01*
X1326398Y220120D01*
X1326645Y220126D01*
X1326892Y220138D01*
X1327139Y220156D01*
X1327385Y220180D01*
X1327631Y220210D01*
X1327876Y220246D01*
X1328119Y220288D01*
X1328362Y220336D01*
X1328604Y220390D01*
X1328844Y220449D01*
X1329082Y220515D01*
X1329319Y220586D01*
X1329554Y220663D01*
X1329788Y220746D01*
X1330019Y220834D01*
X1330248Y220928D01*
X1330474Y221028D01*
X1330698Y221133D01*
X1330920Y221243D01*
X1331138Y221359D01*
X1331354Y221480D01*
X1331567Y221606D01*
X1331776Y221738D01*
X1331983Y221874D01*
X1332186Y222016D01*
X1332385Y222162D01*
X1332581Y222314D01*
X1332773Y222470D01*
X1332961Y222630D01*
X1333146Y222795D01*
X1333326Y222965D01*
X1333502Y223139D01*
X1333674Y223317D01*
X1333841Y223499D01*
X1334004Y223685D01*
X1334162Y223875D01*
X1334316Y224069D01*
X1334464Y224267D01*
X1334608Y224468D01*
X1334747Y224673D01*
X1334881Y224881D01*
X1335010Y225092D01*
X1335134Y225307D01*
X1335252Y225524D01*
X1335366Y225744D01*
X1335473Y225967D01*
X1335576Y226192D01*
X1335672Y226420D01*
X1335764Y226650D01*
X1335849Y226882D01*
X1335929Y227116D01*
X1336003Y227352D01*
X1336072Y227590D01*
X1336134Y227829D01*
X1336191Y228070D01*
X1336242Y228312D01*
X1336287Y228555D01*
X1336326Y228800D01*
X1336359Y229045D01*
X1336386Y229291D01*
X1336407Y229537D01*
X1336422Y229784D01*
X1336431Y230032D01*
X1336434Y230279D01*
X1495034Y230279D02*
X1495034Y179479D01*
X1436614Y179479D02*
X1436614Y230279D01*
X1436614Y179479D02*
X1495034Y179479D01*
X1495034Y230279D02*
X1475984Y230279D01*
X1455664Y230279D02*
X1436614Y230279D01*
X1455664Y230279D02*
X1455667Y230032D01*
X1455676Y229784D01*
X1455691Y229537D01*
X1455712Y229291D01*
X1455739Y229045D01*
X1455772Y228800D01*
X1455811Y228555D01*
X1455856Y228312D01*
X1455907Y228070D01*
X1455964Y227829D01*
X1456026Y227590D01*
X1456095Y227352D01*
X1456169Y227116D01*
X1456249Y226882D01*
X1456334Y226650D01*
X1456426Y226420D01*
X1456522Y226192D01*
X1456625Y225967D01*
X1456732Y225744D01*
X1456846Y225524D01*
X1456964Y225307D01*
X1457088Y225092D01*
X1457217Y224881D01*
X1457351Y224673D01*
X1457490Y224468D01*
X1457634Y224267D01*
X1457782Y224069D01*
X1457936Y223875D01*
X1458094Y223685D01*
X1458257Y223499D01*
X1458424Y223317D01*
X1458596Y223139D01*
X1458772Y222965D01*
X1458952Y222795D01*
X1459137Y222630D01*
X1459325Y222470D01*
X1459517Y222314D01*
X1459713Y222162D01*
X1459912Y222016D01*
X1460115Y221874D01*
X1460322Y221738D01*
X1460531Y221606D01*
X1460744Y221480D01*
X1460960Y221359D01*
X1461178Y221243D01*
X1461400Y221133D01*
X1461624Y221028D01*
X1461850Y220928D01*
X1462079Y220834D01*
X1462310Y220746D01*
X1462544Y220663D01*
X1462779Y220586D01*
X1463016Y220515D01*
X1463254Y220449D01*
X1463494Y220390D01*
X1463736Y220336D01*
X1463979Y220288D01*
X1464222Y220246D01*
X1464467Y220210D01*
X1464713Y220180D01*
X1464959Y220156D01*
X1465206Y220138D01*
X1465453Y220126D01*
X1465700Y220120D01*
X1465948Y220120D01*
X1466195Y220126D01*
X1466442Y220138D01*
X1466689Y220156D01*
X1466935Y220180D01*
X1467181Y220210D01*
X1467426Y220246D01*
X1467669Y220288D01*
X1467912Y220336D01*
X1468154Y220390D01*
X1468394Y220449D01*
X1468632Y220515D01*
X1468869Y220586D01*
X1469104Y220663D01*
X1469338Y220746D01*
X1469569Y220834D01*
X1469798Y220928D01*
X1470024Y221028D01*
X1470248Y221133D01*
X1470470Y221243D01*
X1470688Y221359D01*
X1470904Y221480D01*
X1471117Y221606D01*
X1471326Y221738D01*
X1471533Y221874D01*
X1471736Y222016D01*
X1471935Y222162D01*
X1472131Y222314D01*
X1472323Y222470D01*
X1472511Y222630D01*
X1472696Y222795D01*
X1472876Y222965D01*
X1473052Y223139D01*
X1473224Y223317D01*
X1473391Y223499D01*
X1473554Y223685D01*
X1473712Y223875D01*
X1473866Y224069D01*
X1474014Y224267D01*
X1474158Y224468D01*
X1474297Y224673D01*
X1474431Y224881D01*
X1474560Y225092D01*
X1474684Y225307D01*
X1474802Y225524D01*
X1474916Y225744D01*
X1475023Y225967D01*
X1475126Y226192D01*
X1475222Y226420D01*
X1475314Y226650D01*
X1475399Y226882D01*
X1475479Y227116D01*
X1475553Y227352D01*
X1475622Y227590D01*
X1475684Y227829D01*
X1475741Y228070D01*
X1475792Y228312D01*
X1475837Y228555D01*
X1475876Y228800D01*
X1475909Y229045D01*
X1475936Y229291D01*
X1475957Y229537D01*
X1475972Y229784D01*
X1475981Y230032D01*
X1475984Y230279D01*
X1634584Y230279D02*
X1634584Y179479D01*
X1576164Y179479D02*
X1576164Y230279D01*
X1576164Y179479D02*
X1634584Y179479D01*
X1634584Y230279D02*
X1615534Y230279D01*
X1595214Y230279D02*
X1576164Y230279D01*
X1595214Y230279D02*
X1595217Y230032D01*
X1595226Y229784D01*
X1595241Y229537D01*
X1595262Y229291D01*
X1595289Y229045D01*
X1595322Y228800D01*
X1595361Y228555D01*
X1595406Y228312D01*
X1595457Y228070D01*
X1595514Y227829D01*
X1595576Y227590D01*
X1595645Y227352D01*
X1595719Y227116D01*
X1595799Y226882D01*
X1595884Y226650D01*
X1595976Y226420D01*
X1596072Y226192D01*
X1596175Y225967D01*
X1596282Y225744D01*
X1596396Y225524D01*
X1596514Y225307D01*
X1596638Y225092D01*
X1596767Y224881D01*
X1596901Y224673D01*
X1597040Y224468D01*
X1597184Y224267D01*
X1597332Y224069D01*
X1597486Y223875D01*
X1597644Y223685D01*
X1597807Y223499D01*
X1597974Y223317D01*
X1598146Y223139D01*
X1598322Y222965D01*
X1598502Y222795D01*
X1598687Y222630D01*
X1598875Y222470D01*
X1599067Y222314D01*
X1599263Y222162D01*
X1599462Y222016D01*
X1599665Y221874D01*
X1599872Y221738D01*
X1600081Y221606D01*
X1600294Y221480D01*
X1600510Y221359D01*
X1600728Y221243D01*
X1600950Y221133D01*
X1601174Y221028D01*
X1601400Y220928D01*
X1601629Y220834D01*
X1601860Y220746D01*
X1602094Y220663D01*
X1602329Y220586D01*
X1602566Y220515D01*
X1602804Y220449D01*
X1603044Y220390D01*
X1603286Y220336D01*
X1603529Y220288D01*
X1603772Y220246D01*
X1604017Y220210D01*
X1604263Y220180D01*
X1604509Y220156D01*
X1604756Y220138D01*
X1605003Y220126D01*
X1605250Y220120D01*
X1605498Y220120D01*
X1605745Y220126D01*
X1605992Y220138D01*
X1606239Y220156D01*
X1606485Y220180D01*
X1606731Y220210D01*
X1606976Y220246D01*
X1607219Y220288D01*
X1607462Y220336D01*
X1607704Y220390D01*
X1607944Y220449D01*
X1608182Y220515D01*
X1608419Y220586D01*
X1608654Y220663D01*
X1608888Y220746D01*
X1609119Y220834D01*
X1609348Y220928D01*
X1609574Y221028D01*
X1609798Y221133D01*
X1610020Y221243D01*
X1610238Y221359D01*
X1610454Y221480D01*
X1610667Y221606D01*
X1610876Y221738D01*
X1611083Y221874D01*
X1611286Y222016D01*
X1611485Y222162D01*
X1611681Y222314D01*
X1611873Y222470D01*
X1612061Y222630D01*
X1612246Y222795D01*
X1612426Y222965D01*
X1612602Y223139D01*
X1612774Y223317D01*
X1612941Y223499D01*
X1613104Y223685D01*
X1613262Y223875D01*
X1613416Y224069D01*
X1613564Y224267D01*
X1613708Y224468D01*
X1613847Y224673D01*
X1613981Y224881D01*
X1614110Y225092D01*
X1614234Y225307D01*
X1614352Y225524D01*
X1614466Y225744D01*
X1614573Y225967D01*
X1614676Y226192D01*
X1614772Y226420D01*
X1614864Y226650D01*
X1614949Y226882D01*
X1615029Y227116D01*
X1615103Y227352D01*
X1615172Y227590D01*
X1615234Y227829D01*
X1615291Y228070D01*
X1615342Y228312D01*
X1615387Y228555D01*
X1615426Y228800D01*
X1615459Y229045D01*
X1615486Y229291D01*
X1615507Y229537D01*
X1615522Y229784D01*
X1615531Y230032D01*
X1615534Y230279D01*
X1774134Y230279D02*
X1774134Y179479D01*
X1715714Y179479D02*
X1715714Y230279D01*
X1715714Y179479D02*
X1774134Y179479D01*
X1774134Y230279D02*
X1755084Y230279D01*
X1734764Y230279D02*
X1715714Y230279D01*
X1734764Y230279D02*
X1734767Y230032D01*
X1734776Y229784D01*
X1734791Y229537D01*
X1734812Y229291D01*
X1734839Y229045D01*
X1734872Y228800D01*
X1734911Y228555D01*
X1734956Y228312D01*
X1735007Y228070D01*
X1735064Y227829D01*
X1735126Y227590D01*
X1735195Y227352D01*
X1735269Y227116D01*
X1735349Y226882D01*
X1735434Y226650D01*
X1735526Y226420D01*
X1735622Y226192D01*
X1735725Y225967D01*
X1735832Y225744D01*
X1735946Y225524D01*
X1736064Y225307D01*
X1736188Y225092D01*
X1736317Y224881D01*
X1736451Y224673D01*
X1736590Y224468D01*
X1736734Y224267D01*
X1736882Y224069D01*
X1737036Y223875D01*
X1737194Y223685D01*
X1737357Y223499D01*
X1737524Y223317D01*
X1737696Y223139D01*
X1737872Y222965D01*
X1738052Y222795D01*
X1738237Y222630D01*
X1738425Y222470D01*
X1738617Y222314D01*
X1738813Y222162D01*
X1739012Y222016D01*
X1739215Y221874D01*
X1739422Y221738D01*
X1739631Y221606D01*
X1739844Y221480D01*
X1740060Y221359D01*
X1740278Y221243D01*
X1740500Y221133D01*
X1740724Y221028D01*
X1740950Y220928D01*
X1741179Y220834D01*
X1741410Y220746D01*
X1741644Y220663D01*
X1741879Y220586D01*
X1742116Y220515D01*
X1742354Y220449D01*
X1742594Y220390D01*
X1742836Y220336D01*
X1743079Y220288D01*
X1743322Y220246D01*
X1743567Y220210D01*
X1743813Y220180D01*
X1744059Y220156D01*
X1744306Y220138D01*
X1744553Y220126D01*
X1744800Y220120D01*
X1745048Y220120D01*
X1745295Y220126D01*
X1745542Y220138D01*
X1745789Y220156D01*
X1746035Y220180D01*
X1746281Y220210D01*
X1746526Y220246D01*
X1746769Y220288D01*
X1747012Y220336D01*
X1747254Y220390D01*
X1747494Y220449D01*
X1747732Y220515D01*
X1747969Y220586D01*
X1748204Y220663D01*
X1748438Y220746D01*
X1748669Y220834D01*
X1748898Y220928D01*
X1749124Y221028D01*
X1749348Y221133D01*
X1749570Y221243D01*
X1749788Y221359D01*
X1750004Y221480D01*
X1750217Y221606D01*
X1750426Y221738D01*
X1750633Y221874D01*
X1750836Y222016D01*
X1751035Y222162D01*
X1751231Y222314D01*
X1751423Y222470D01*
X1751611Y222630D01*
X1751796Y222795D01*
X1751976Y222965D01*
X1752152Y223139D01*
X1752324Y223317D01*
X1752491Y223499D01*
X1752654Y223685D01*
X1752812Y223875D01*
X1752966Y224069D01*
X1753114Y224267D01*
X1753258Y224468D01*
X1753397Y224673D01*
X1753531Y224881D01*
X1753660Y225092D01*
X1753784Y225307D01*
X1753902Y225524D01*
X1754016Y225744D01*
X1754123Y225967D01*
X1754226Y226192D01*
X1754322Y226420D01*
X1754414Y226650D01*
X1754499Y226882D01*
X1754579Y227116D01*
X1754653Y227352D01*
X1754722Y227590D01*
X1754784Y227829D01*
X1754841Y228070D01*
X1754892Y228312D01*
X1754937Y228555D01*
X1754976Y228800D01*
X1755009Y229045D01*
X1755036Y229291D01*
X1755057Y229537D01*
X1755072Y229784D01*
X1755081Y230032D01*
X1755084Y230279D01*
X1913684Y230279D02*
X1913684Y179479D01*
X1855264Y179479D02*
X1855264Y230279D01*
X1855264Y179479D02*
X1913684Y179479D01*
X1913684Y230279D02*
X1894634Y230279D01*
X1874314Y230279D02*
X1855264Y230279D01*
X1874314Y230279D02*
X1874317Y230032D01*
X1874326Y229784D01*
X1874341Y229537D01*
X1874362Y229291D01*
X1874389Y229045D01*
X1874422Y228800D01*
X1874461Y228555D01*
X1874506Y228312D01*
X1874557Y228070D01*
X1874614Y227829D01*
X1874676Y227590D01*
X1874745Y227352D01*
X1874819Y227116D01*
X1874899Y226882D01*
X1874984Y226650D01*
X1875076Y226420D01*
X1875172Y226192D01*
X1875275Y225967D01*
X1875382Y225744D01*
X1875496Y225524D01*
X1875614Y225307D01*
X1875738Y225092D01*
X1875867Y224881D01*
X1876001Y224673D01*
X1876140Y224468D01*
X1876284Y224267D01*
X1876432Y224069D01*
X1876586Y223875D01*
X1876744Y223685D01*
X1876907Y223499D01*
X1877074Y223317D01*
X1877246Y223139D01*
X1877422Y222965D01*
X1877602Y222795D01*
X1877787Y222630D01*
X1877975Y222470D01*
X1878167Y222314D01*
X1878363Y222162D01*
X1878562Y222016D01*
X1878765Y221874D01*
X1878972Y221738D01*
X1879181Y221606D01*
X1879394Y221480D01*
X1879610Y221359D01*
X1879828Y221243D01*
X1880050Y221133D01*
X1880274Y221028D01*
X1880500Y220928D01*
X1880729Y220834D01*
X1880960Y220746D01*
X1881194Y220663D01*
X1881429Y220586D01*
X1881666Y220515D01*
X1881904Y220449D01*
X1882144Y220390D01*
X1882386Y220336D01*
X1882629Y220288D01*
X1882872Y220246D01*
X1883117Y220210D01*
X1883363Y220180D01*
X1883609Y220156D01*
X1883856Y220138D01*
X1884103Y220126D01*
X1884350Y220120D01*
X1884598Y220120D01*
X1884845Y220126D01*
X1885092Y220138D01*
X1885339Y220156D01*
X1885585Y220180D01*
X1885831Y220210D01*
X1886076Y220246D01*
X1886319Y220288D01*
X1886562Y220336D01*
X1886804Y220390D01*
X1887044Y220449D01*
X1887282Y220515D01*
X1887519Y220586D01*
X1887754Y220663D01*
X1887988Y220746D01*
X1888219Y220834D01*
X1888448Y220928D01*
X1888674Y221028D01*
X1888898Y221133D01*
X1889120Y221243D01*
X1889338Y221359D01*
X1889554Y221480D01*
X1889767Y221606D01*
X1889976Y221738D01*
X1890183Y221874D01*
X1890386Y222016D01*
X1890585Y222162D01*
X1890781Y222314D01*
X1890973Y222470D01*
X1891161Y222630D01*
X1891346Y222795D01*
X1891526Y222965D01*
X1891702Y223139D01*
X1891874Y223317D01*
X1892041Y223499D01*
X1892204Y223685D01*
X1892362Y223875D01*
X1892516Y224069D01*
X1892664Y224267D01*
X1892808Y224468D01*
X1892947Y224673D01*
X1893081Y224881D01*
X1893210Y225092D01*
X1893334Y225307D01*
X1893452Y225524D01*
X1893566Y225744D01*
X1893673Y225967D01*
X1893776Y226192D01*
X1893872Y226420D01*
X1893964Y226650D01*
X1894049Y226882D01*
X1894129Y227116D01*
X1894203Y227352D01*
X1894272Y227590D01*
X1894334Y227829D01*
X1894391Y228070D01*
X1894442Y228312D01*
X1894487Y228555D01*
X1894526Y228800D01*
X1894559Y229045D01*
X1894586Y229291D01*
X1894607Y229537D01*
X1894622Y229784D01*
X1894631Y230032D01*
X1894634Y230279D01*
X936834Y230279D02*
X936834Y179479D01*
X878414Y179479D02*
X878414Y230279D01*
X878414Y179479D02*
X936834Y179479D01*
X936834Y230279D02*
X917784Y230279D01*
X897464Y230279D02*
X878414Y230279D01*
X897464Y230279D02*
X897467Y230032D01*
X897476Y229784D01*
X897491Y229537D01*
X897512Y229291D01*
X897539Y229045D01*
X897572Y228800D01*
X897611Y228555D01*
X897656Y228312D01*
X897707Y228070D01*
X897764Y227829D01*
X897826Y227590D01*
X897895Y227352D01*
X897969Y227116D01*
X898049Y226882D01*
X898134Y226650D01*
X898226Y226420D01*
X898322Y226192D01*
X898425Y225967D01*
X898532Y225744D01*
X898646Y225524D01*
X898764Y225307D01*
X898888Y225092D01*
X899017Y224881D01*
X899151Y224673D01*
X899290Y224468D01*
X899434Y224267D01*
X899582Y224069D01*
X899736Y223875D01*
X899894Y223685D01*
X900057Y223499D01*
X900224Y223317D01*
X900396Y223139D01*
X900572Y222965D01*
X900752Y222795D01*
X900937Y222630D01*
X901125Y222470D01*
X901317Y222314D01*
X901513Y222162D01*
X901712Y222016D01*
X901915Y221874D01*
X902122Y221738D01*
X902331Y221606D01*
X902544Y221480D01*
X902760Y221359D01*
X902978Y221243D01*
X903200Y221133D01*
X903424Y221028D01*
X903650Y220928D01*
X903879Y220834D01*
X904110Y220746D01*
X904344Y220663D01*
X904579Y220586D01*
X904816Y220515D01*
X905054Y220449D01*
X905294Y220390D01*
X905536Y220336D01*
X905779Y220288D01*
X906022Y220246D01*
X906267Y220210D01*
X906513Y220180D01*
X906759Y220156D01*
X907006Y220138D01*
X907253Y220126D01*
X907500Y220120D01*
X907748Y220120D01*
X907995Y220126D01*
X908242Y220138D01*
X908489Y220156D01*
X908735Y220180D01*
X908981Y220210D01*
X909226Y220246D01*
X909469Y220288D01*
X909712Y220336D01*
X909954Y220390D01*
X910194Y220449D01*
X910432Y220515D01*
X910669Y220586D01*
X910904Y220663D01*
X911138Y220746D01*
X911369Y220834D01*
X911598Y220928D01*
X911824Y221028D01*
X912048Y221133D01*
X912270Y221243D01*
X912488Y221359D01*
X912704Y221480D01*
X912917Y221606D01*
X913126Y221738D01*
X913333Y221874D01*
X913536Y222016D01*
X913735Y222162D01*
X913931Y222314D01*
X914123Y222470D01*
X914311Y222630D01*
X914496Y222795D01*
X914676Y222965D01*
X914852Y223139D01*
X915024Y223317D01*
X915191Y223499D01*
X915354Y223685D01*
X915512Y223875D01*
X915666Y224069D01*
X915814Y224267D01*
X915958Y224468D01*
X916097Y224673D01*
X916231Y224881D01*
X916360Y225092D01*
X916484Y225307D01*
X916602Y225524D01*
X916716Y225744D01*
X916823Y225967D01*
X916926Y226192D01*
X917022Y226420D01*
X917114Y226650D01*
X917199Y226882D01*
X917279Y227116D01*
X917353Y227352D01*
X917422Y227590D01*
X917484Y227829D01*
X917541Y228070D01*
X917592Y228312D01*
X917637Y228555D01*
X917676Y228800D01*
X917709Y229045D01*
X917736Y229291D01*
X917757Y229537D01*
X917772Y229784D01*
X917781Y230032D01*
X917784Y230279D01*
X2053234Y230279D02*
X2053234Y179479D01*
X1994814Y179479D02*
X1994814Y230279D01*
X1994814Y179479D02*
X2053234Y179479D01*
X2053234Y230279D02*
X2034184Y230279D01*
X2013864Y230279D02*
X1994814Y230279D01*
X2013864Y230279D02*
X2013867Y230032D01*
X2013876Y229784D01*
X2013891Y229537D01*
X2013912Y229291D01*
X2013939Y229045D01*
X2013972Y228800D01*
X2014011Y228555D01*
X2014056Y228312D01*
X2014107Y228070D01*
X2014164Y227829D01*
X2014226Y227590D01*
X2014295Y227352D01*
X2014369Y227116D01*
X2014449Y226882D01*
X2014534Y226650D01*
X2014626Y226420D01*
X2014722Y226192D01*
X2014825Y225967D01*
X2014932Y225744D01*
X2015046Y225524D01*
X2015164Y225307D01*
X2015288Y225092D01*
X2015417Y224881D01*
X2015551Y224673D01*
X2015690Y224468D01*
X2015834Y224267D01*
X2015982Y224069D01*
X2016136Y223875D01*
X2016294Y223685D01*
X2016457Y223499D01*
X2016624Y223317D01*
X2016796Y223139D01*
X2016972Y222965D01*
X2017152Y222795D01*
X2017337Y222630D01*
X2017525Y222470D01*
X2017717Y222314D01*
X2017913Y222162D01*
X2018112Y222016D01*
X2018315Y221874D01*
X2018522Y221738D01*
X2018731Y221606D01*
X2018944Y221480D01*
X2019160Y221359D01*
X2019378Y221243D01*
X2019600Y221133D01*
X2019824Y221028D01*
X2020050Y220928D01*
X2020279Y220834D01*
X2020510Y220746D01*
X2020744Y220663D01*
X2020979Y220586D01*
X2021216Y220515D01*
X2021454Y220449D01*
X2021694Y220390D01*
X2021936Y220336D01*
X2022179Y220288D01*
X2022422Y220246D01*
X2022667Y220210D01*
X2022913Y220180D01*
X2023159Y220156D01*
X2023406Y220138D01*
X2023653Y220126D01*
X2023900Y220120D01*
X2024148Y220120D01*
X2024395Y220126D01*
X2024642Y220138D01*
X2024889Y220156D01*
X2025135Y220180D01*
X2025381Y220210D01*
X2025626Y220246D01*
X2025869Y220288D01*
X2026112Y220336D01*
X2026354Y220390D01*
X2026594Y220449D01*
X2026832Y220515D01*
X2027069Y220586D01*
X2027304Y220663D01*
X2027538Y220746D01*
X2027769Y220834D01*
X2027998Y220928D01*
X2028224Y221028D01*
X2028448Y221133D01*
X2028670Y221243D01*
X2028888Y221359D01*
X2029104Y221480D01*
X2029317Y221606D01*
X2029526Y221738D01*
X2029733Y221874D01*
X2029936Y222016D01*
X2030135Y222162D01*
X2030331Y222314D01*
X2030523Y222470D01*
X2030711Y222630D01*
X2030896Y222795D01*
X2031076Y222965D01*
X2031252Y223139D01*
X2031424Y223317D01*
X2031591Y223499D01*
X2031754Y223685D01*
X2031912Y223875D01*
X2032066Y224069D01*
X2032214Y224267D01*
X2032358Y224468D01*
X2032497Y224673D01*
X2032631Y224881D01*
X2032760Y225092D01*
X2032884Y225307D01*
X2033002Y225524D01*
X2033116Y225744D01*
X2033223Y225967D01*
X2033326Y226192D01*
X2033422Y226420D01*
X2033514Y226650D01*
X2033599Y226882D01*
X2033679Y227116D01*
X2033753Y227352D01*
X2033822Y227590D01*
X2033884Y227829D01*
X2033941Y228070D01*
X2033992Y228312D01*
X2034037Y228555D01*
X2034076Y228800D01*
X2034109Y229045D01*
X2034136Y229291D01*
X2034157Y229537D01*
X2034172Y229784D01*
X2034181Y230032D01*
X2034184Y230279D01*
X1076384Y230279D02*
X1076384Y179479D01*
X1017964Y179479D02*
X1017964Y230279D01*
X1017964Y179479D02*
X1076384Y179479D01*
X1076384Y230279D02*
X1057334Y230279D01*
X1037014Y230279D02*
X1017964Y230279D01*
X1037014Y230279D02*
X1037017Y230032D01*
X1037026Y229784D01*
X1037041Y229537D01*
X1037062Y229291D01*
X1037089Y229045D01*
X1037122Y228800D01*
X1037161Y228555D01*
X1037206Y228312D01*
X1037257Y228070D01*
X1037314Y227829D01*
X1037376Y227590D01*
X1037445Y227352D01*
X1037519Y227116D01*
X1037599Y226882D01*
X1037684Y226650D01*
X1037776Y226420D01*
X1037872Y226192D01*
X1037975Y225967D01*
X1038082Y225744D01*
X1038196Y225524D01*
X1038314Y225307D01*
X1038438Y225092D01*
X1038567Y224881D01*
X1038701Y224673D01*
X1038840Y224468D01*
X1038984Y224267D01*
X1039132Y224069D01*
X1039286Y223875D01*
X1039444Y223685D01*
X1039607Y223499D01*
X1039774Y223317D01*
X1039946Y223139D01*
X1040122Y222965D01*
X1040302Y222795D01*
X1040487Y222630D01*
X1040675Y222470D01*
X1040867Y222314D01*
X1041063Y222162D01*
X1041262Y222016D01*
X1041465Y221874D01*
X1041672Y221738D01*
X1041881Y221606D01*
X1042094Y221480D01*
X1042310Y221359D01*
X1042528Y221243D01*
X1042750Y221133D01*
X1042974Y221028D01*
X1043200Y220928D01*
X1043429Y220834D01*
X1043660Y220746D01*
X1043894Y220663D01*
X1044129Y220586D01*
X1044366Y220515D01*
X1044604Y220449D01*
X1044844Y220390D01*
X1045086Y220336D01*
X1045329Y220288D01*
X1045572Y220246D01*
X1045817Y220210D01*
X1046063Y220180D01*
X1046309Y220156D01*
X1046556Y220138D01*
X1046803Y220126D01*
X1047050Y220120D01*
X1047298Y220120D01*
X1047545Y220126D01*
X1047792Y220138D01*
X1048039Y220156D01*
X1048285Y220180D01*
X1048531Y220210D01*
X1048776Y220246D01*
X1049019Y220288D01*
X1049262Y220336D01*
X1049504Y220390D01*
X1049744Y220449D01*
X1049982Y220515D01*
X1050219Y220586D01*
X1050454Y220663D01*
X1050688Y220746D01*
X1050919Y220834D01*
X1051148Y220928D01*
X1051374Y221028D01*
X1051598Y221133D01*
X1051820Y221243D01*
X1052038Y221359D01*
X1052254Y221480D01*
X1052467Y221606D01*
X1052676Y221738D01*
X1052883Y221874D01*
X1053086Y222016D01*
X1053285Y222162D01*
X1053481Y222314D01*
X1053673Y222470D01*
X1053861Y222630D01*
X1054046Y222795D01*
X1054226Y222965D01*
X1054402Y223139D01*
X1054574Y223317D01*
X1054741Y223499D01*
X1054904Y223685D01*
X1055062Y223875D01*
X1055216Y224069D01*
X1055364Y224267D01*
X1055508Y224468D01*
X1055647Y224673D01*
X1055781Y224881D01*
X1055910Y225092D01*
X1056034Y225307D01*
X1056152Y225524D01*
X1056266Y225744D01*
X1056373Y225967D01*
X1056476Y226192D01*
X1056572Y226420D01*
X1056664Y226650D01*
X1056749Y226882D01*
X1056829Y227116D01*
X1056903Y227352D01*
X1056972Y227590D01*
X1057034Y227829D01*
X1057091Y228070D01*
X1057142Y228312D01*
X1057187Y228555D01*
X1057226Y228800D01*
X1057259Y229045D01*
X1057286Y229291D01*
X1057307Y229537D01*
X1057322Y229784D01*
X1057331Y230032D01*
X1057334Y230279D01*
X2192784Y230279D02*
X2192784Y179479D01*
X2134364Y179479D02*
X2134364Y230279D01*
X2134364Y179479D02*
X2192784Y179479D01*
X2192784Y230279D02*
X2173734Y230279D01*
X2153414Y230279D02*
X2134364Y230279D01*
X2153414Y230279D02*
X2153417Y230032D01*
X2153426Y229784D01*
X2153441Y229537D01*
X2153462Y229291D01*
X2153489Y229045D01*
X2153522Y228800D01*
X2153561Y228555D01*
X2153606Y228312D01*
X2153657Y228070D01*
X2153714Y227829D01*
X2153776Y227590D01*
X2153845Y227352D01*
X2153919Y227116D01*
X2153999Y226882D01*
X2154084Y226650D01*
X2154176Y226420D01*
X2154272Y226192D01*
X2154375Y225967D01*
X2154482Y225744D01*
X2154596Y225524D01*
X2154714Y225307D01*
X2154838Y225092D01*
X2154967Y224881D01*
X2155101Y224673D01*
X2155240Y224468D01*
X2155384Y224267D01*
X2155532Y224069D01*
X2155686Y223875D01*
X2155844Y223685D01*
X2156007Y223499D01*
X2156174Y223317D01*
X2156346Y223139D01*
X2156522Y222965D01*
X2156702Y222795D01*
X2156887Y222630D01*
X2157075Y222470D01*
X2157267Y222314D01*
X2157463Y222162D01*
X2157662Y222016D01*
X2157865Y221874D01*
X2158072Y221738D01*
X2158281Y221606D01*
X2158494Y221480D01*
X2158710Y221359D01*
X2158928Y221243D01*
X2159150Y221133D01*
X2159374Y221028D01*
X2159600Y220928D01*
X2159829Y220834D01*
X2160060Y220746D01*
X2160294Y220663D01*
X2160529Y220586D01*
X2160766Y220515D01*
X2161004Y220449D01*
X2161244Y220390D01*
X2161486Y220336D01*
X2161729Y220288D01*
X2161972Y220246D01*
X2162217Y220210D01*
X2162463Y220180D01*
X2162709Y220156D01*
X2162956Y220138D01*
X2163203Y220126D01*
X2163450Y220120D01*
X2163698Y220120D01*
X2163945Y220126D01*
X2164192Y220138D01*
X2164439Y220156D01*
X2164685Y220180D01*
X2164931Y220210D01*
X2165176Y220246D01*
X2165419Y220288D01*
X2165662Y220336D01*
X2165904Y220390D01*
X2166144Y220449D01*
X2166382Y220515D01*
X2166619Y220586D01*
X2166854Y220663D01*
X2167088Y220746D01*
X2167319Y220834D01*
X2167548Y220928D01*
X2167774Y221028D01*
X2167998Y221133D01*
X2168220Y221243D01*
X2168438Y221359D01*
X2168654Y221480D01*
X2168867Y221606D01*
X2169076Y221738D01*
X2169283Y221874D01*
X2169486Y222016D01*
X2169685Y222162D01*
X2169881Y222314D01*
X2170073Y222470D01*
X2170261Y222630D01*
X2170446Y222795D01*
X2170626Y222965D01*
X2170802Y223139D01*
X2170974Y223317D01*
X2171141Y223499D01*
X2171304Y223685D01*
X2171462Y223875D01*
X2171616Y224069D01*
X2171764Y224267D01*
X2171908Y224468D01*
X2172047Y224673D01*
X2172181Y224881D01*
X2172310Y225092D01*
X2172434Y225307D01*
X2172552Y225524D01*
X2172666Y225744D01*
X2172773Y225967D01*
X2172876Y226192D01*
X2172972Y226420D01*
X2173064Y226650D01*
X2173149Y226882D01*
X2173229Y227116D01*
X2173303Y227352D01*
X2173372Y227590D01*
X2173434Y227829D01*
X2173491Y228070D01*
X2173542Y228312D01*
X2173587Y228555D01*
X2173626Y228800D01*
X2173659Y229045D01*
X2173686Y229291D01*
X2173707Y229537D01*
X2173722Y229784D01*
X2173731Y230032D01*
X2173734Y230279D01*
X435610Y24384D02*
X435610Y17780D01*
X435610Y24384D02*
X437444Y24384D01*
X437529Y24382D01*
X437613Y24376D01*
X437697Y24366D01*
X437781Y24353D01*
X437864Y24335D01*
X437946Y24314D01*
X438027Y24289D01*
X438107Y24260D01*
X438185Y24228D01*
X438261Y24192D01*
X438336Y24152D01*
X438409Y24109D01*
X438480Y24063D01*
X438549Y24014D01*
X438616Y23961D01*
X438680Y23905D01*
X438741Y23847D01*
X438799Y23786D01*
X438855Y23722D01*
X438908Y23655D01*
X438957Y23586D01*
X439003Y23515D01*
X439046Y23442D01*
X439086Y23367D01*
X439122Y23291D01*
X439154Y23213D01*
X439183Y23133D01*
X439208Y23052D01*
X439229Y22970D01*
X439247Y22887D01*
X439260Y22803D01*
X439270Y22719D01*
X439276Y22635D01*
X439278Y22550D01*
X439276Y22465D01*
X439270Y22381D01*
X439260Y22297D01*
X439247Y22213D01*
X439229Y22130D01*
X439208Y22048D01*
X439183Y21967D01*
X439154Y21887D01*
X439122Y21809D01*
X439086Y21733D01*
X439046Y21658D01*
X439003Y21585D01*
X438957Y21514D01*
X438908Y21445D01*
X438855Y21378D01*
X438799Y21314D01*
X438741Y21253D01*
X438680Y21195D01*
X438616Y21139D01*
X438549Y21086D01*
X438480Y21037D01*
X438409Y20991D01*
X438336Y20948D01*
X438261Y20908D01*
X438185Y20872D01*
X438107Y20840D01*
X438027Y20811D01*
X437946Y20786D01*
X437864Y20765D01*
X437781Y20747D01*
X437697Y20734D01*
X437613Y20724D01*
X437529Y20718D01*
X437444Y20716D01*
X437444Y20715D02*
X435610Y20715D01*
X437811Y20715D02*
X439279Y17780D01*
X442846Y22916D02*
X444681Y24384D01*
X444681Y17780D01*
X446515Y17780D02*
X442846Y17780D01*
X490728Y18288D02*
X490728Y24892D01*
X492562Y24892D01*
X492647Y24890D01*
X492731Y24884D01*
X492815Y24874D01*
X492899Y24861D01*
X492982Y24843D01*
X493064Y24822D01*
X493145Y24797D01*
X493225Y24768D01*
X493303Y24736D01*
X493379Y24700D01*
X493454Y24660D01*
X493527Y24617D01*
X493598Y24571D01*
X493667Y24522D01*
X493734Y24469D01*
X493798Y24413D01*
X493859Y24355D01*
X493917Y24294D01*
X493973Y24230D01*
X494026Y24163D01*
X494075Y24094D01*
X494121Y24023D01*
X494164Y23950D01*
X494204Y23875D01*
X494240Y23799D01*
X494272Y23721D01*
X494301Y23641D01*
X494326Y23560D01*
X494347Y23478D01*
X494365Y23395D01*
X494378Y23311D01*
X494388Y23227D01*
X494394Y23143D01*
X494396Y23058D01*
X494394Y22973D01*
X494388Y22889D01*
X494378Y22805D01*
X494365Y22721D01*
X494347Y22638D01*
X494326Y22556D01*
X494301Y22475D01*
X494272Y22395D01*
X494240Y22317D01*
X494204Y22241D01*
X494164Y22166D01*
X494121Y22093D01*
X494075Y22022D01*
X494026Y21953D01*
X493973Y21886D01*
X493917Y21822D01*
X493859Y21761D01*
X493798Y21703D01*
X493734Y21647D01*
X493667Y21594D01*
X493598Y21545D01*
X493527Y21499D01*
X493454Y21456D01*
X493379Y21416D01*
X493303Y21380D01*
X493225Y21348D01*
X493145Y21319D01*
X493064Y21294D01*
X492982Y21273D01*
X492899Y21255D01*
X492815Y21242D01*
X492731Y21232D01*
X492647Y21226D01*
X492562Y21224D01*
X492562Y21223D02*
X490728Y21223D01*
X492929Y21223D02*
X494397Y18288D01*
X499982Y24892D02*
X500061Y24890D01*
X500139Y24885D01*
X500217Y24875D01*
X500294Y24862D01*
X500371Y24845D01*
X500447Y24825D01*
X500522Y24801D01*
X500596Y24774D01*
X500668Y24743D01*
X500739Y24708D01*
X500808Y24671D01*
X500875Y24630D01*
X500940Y24586D01*
X501003Y24539D01*
X501063Y24489D01*
X501121Y24436D01*
X501177Y24380D01*
X501230Y24322D01*
X501280Y24262D01*
X501327Y24199D01*
X501371Y24134D01*
X501412Y24067D01*
X501449Y23998D01*
X501484Y23927D01*
X501515Y23855D01*
X501542Y23781D01*
X501566Y23706D01*
X501586Y23630D01*
X501603Y23553D01*
X501616Y23476D01*
X501626Y23398D01*
X501631Y23320D01*
X501633Y23241D01*
X499982Y24892D02*
X499893Y24890D01*
X499804Y24885D01*
X499716Y24875D01*
X499628Y24862D01*
X499541Y24846D01*
X499454Y24825D01*
X499369Y24801D01*
X499284Y24774D01*
X499201Y24743D01*
X499119Y24708D01*
X499038Y24670D01*
X498959Y24629D01*
X498883Y24585D01*
X498807Y24537D01*
X498734Y24486D01*
X498664Y24433D01*
X498595Y24376D01*
X498529Y24316D01*
X498466Y24254D01*
X498405Y24189D01*
X498347Y24122D01*
X498292Y24052D01*
X498239Y23980D01*
X498190Y23906D01*
X498144Y23830D01*
X498102Y23752D01*
X498062Y23672D01*
X498026Y23591D01*
X497993Y23508D01*
X497964Y23424D01*
X501083Y21957D02*
X501139Y22013D01*
X501193Y22072D01*
X501244Y22133D01*
X501293Y22197D01*
X501338Y22262D01*
X501381Y22330D01*
X501420Y22399D01*
X501457Y22470D01*
X501490Y22543D01*
X501519Y22617D01*
X501546Y22692D01*
X501569Y22768D01*
X501588Y22846D01*
X501604Y22924D01*
X501617Y23002D01*
X501626Y23082D01*
X501631Y23161D01*
X501633Y23241D01*
X501083Y21957D02*
X497964Y18288D01*
X501633Y18288D01*
X375158Y18034D02*
X375158Y24638D01*
X376992Y24638D01*
X377077Y24636D01*
X377161Y24630D01*
X377245Y24620D01*
X377329Y24607D01*
X377412Y24589D01*
X377494Y24568D01*
X377575Y24543D01*
X377655Y24514D01*
X377733Y24482D01*
X377809Y24446D01*
X377884Y24406D01*
X377957Y24363D01*
X378028Y24317D01*
X378097Y24268D01*
X378164Y24215D01*
X378228Y24159D01*
X378289Y24101D01*
X378347Y24040D01*
X378403Y23976D01*
X378456Y23909D01*
X378505Y23840D01*
X378551Y23769D01*
X378594Y23696D01*
X378634Y23621D01*
X378670Y23545D01*
X378702Y23467D01*
X378731Y23387D01*
X378756Y23306D01*
X378777Y23224D01*
X378795Y23141D01*
X378808Y23057D01*
X378818Y22973D01*
X378824Y22889D01*
X378826Y22804D01*
X378824Y22719D01*
X378818Y22635D01*
X378808Y22551D01*
X378795Y22467D01*
X378777Y22384D01*
X378756Y22302D01*
X378731Y22221D01*
X378702Y22141D01*
X378670Y22063D01*
X378634Y21987D01*
X378594Y21912D01*
X378551Y21839D01*
X378505Y21768D01*
X378456Y21699D01*
X378403Y21632D01*
X378347Y21568D01*
X378289Y21507D01*
X378228Y21449D01*
X378164Y21393D01*
X378097Y21340D01*
X378028Y21291D01*
X377957Y21245D01*
X377884Y21202D01*
X377809Y21162D01*
X377733Y21126D01*
X377655Y21094D01*
X377575Y21065D01*
X377494Y21040D01*
X377412Y21019D01*
X377329Y21001D01*
X377245Y20988D01*
X377161Y20978D01*
X377077Y20972D01*
X376992Y20970D01*
X376992Y20969D02*
X375158Y20969D01*
X377359Y20969D02*
X378827Y18034D01*
X382394Y18034D02*
X384229Y18034D01*
X384314Y18036D01*
X384398Y18042D01*
X384482Y18052D01*
X384566Y18065D01*
X384649Y18083D01*
X384731Y18104D01*
X384812Y18129D01*
X384892Y18158D01*
X384970Y18190D01*
X385046Y18226D01*
X385121Y18266D01*
X385194Y18309D01*
X385265Y18355D01*
X385334Y18404D01*
X385401Y18457D01*
X385465Y18513D01*
X385526Y18571D01*
X385584Y18632D01*
X385640Y18696D01*
X385693Y18763D01*
X385742Y18832D01*
X385788Y18903D01*
X385831Y18976D01*
X385871Y19051D01*
X385907Y19127D01*
X385939Y19205D01*
X385968Y19285D01*
X385993Y19366D01*
X386014Y19448D01*
X386032Y19531D01*
X386045Y19615D01*
X386055Y19699D01*
X386061Y19783D01*
X386063Y19868D01*
X386061Y19953D01*
X386055Y20037D01*
X386045Y20121D01*
X386032Y20205D01*
X386014Y20288D01*
X385993Y20370D01*
X385968Y20451D01*
X385939Y20531D01*
X385907Y20609D01*
X385871Y20685D01*
X385831Y20760D01*
X385788Y20833D01*
X385742Y20904D01*
X385693Y20973D01*
X385640Y21040D01*
X385584Y21104D01*
X385526Y21165D01*
X385465Y21223D01*
X385401Y21279D01*
X385334Y21332D01*
X385265Y21381D01*
X385194Y21427D01*
X385121Y21470D01*
X385046Y21510D01*
X384970Y21546D01*
X384892Y21578D01*
X384812Y21607D01*
X384731Y21632D01*
X384649Y21653D01*
X384566Y21671D01*
X384482Y21684D01*
X384398Y21694D01*
X384314Y21700D01*
X384229Y21702D01*
X384596Y24638D02*
X382394Y24638D01*
X384596Y24638D02*
X384672Y24636D01*
X384747Y24630D01*
X384822Y24621D01*
X384896Y24607D01*
X384970Y24590D01*
X385042Y24568D01*
X385114Y24544D01*
X385184Y24515D01*
X385252Y24483D01*
X385319Y24448D01*
X385384Y24409D01*
X385447Y24366D01*
X385507Y24321D01*
X385565Y24273D01*
X385621Y24221D01*
X385673Y24167D01*
X385723Y24110D01*
X385770Y24051D01*
X385814Y23990D01*
X385855Y23926D01*
X385892Y23860D01*
X385926Y23792D01*
X385956Y23723D01*
X385983Y23652D01*
X386006Y23580D01*
X386025Y23507D01*
X386040Y23433D01*
X386052Y23358D01*
X386060Y23283D01*
X386064Y23208D01*
X386064Y23132D01*
X386060Y23057D01*
X386052Y22982D01*
X386040Y22907D01*
X386025Y22833D01*
X386006Y22760D01*
X385983Y22688D01*
X385956Y22617D01*
X385926Y22548D01*
X385892Y22480D01*
X385855Y22414D01*
X385814Y22350D01*
X385770Y22289D01*
X385723Y22230D01*
X385673Y22173D01*
X385621Y22119D01*
X385565Y22067D01*
X385507Y22019D01*
X385447Y21974D01*
X385384Y21931D01*
X385319Y21892D01*
X385252Y21857D01*
X385184Y21825D01*
X385114Y21796D01*
X385042Y21772D01*
X384970Y21750D01*
X384896Y21733D01*
X384822Y21719D01*
X384747Y21710D01*
X384672Y21704D01*
X384596Y21702D01*
X384596Y21703D02*
X383128Y21703D01*
M02*
